<svg width="96" height="96" viewBox="0 0 96 96" fill="none" xmlns="http://www.w3.org/2000/svg">
<path d="M20 20H44.5877C45.326 20.0002 46.0476 20.2192 46.6614 20.6294C47.2752 21.0397 47.7536 21.6227 48.0361 22.3048C48.3186 22.9868 48.3926 23.7374 48.2486 24.4615C48.1046 25.1855 47.7492 25.8507 47.2272 26.3728L42.4 31.2M31.2 31.2C31.2 36.8 33.0667 42.4 23.7333 49.8667M46.1333 76L61.0667 42.4L76 76M72.64 68.5333H49.4933" stroke="#222222" stroke-width="8" stroke-linecap="round" stroke-linejoin="round"/>
<path d="M84 1.5C81.9233 1.5 79.8932 2.11581 78.1665 3.26957C76.4398 4.42332 75.094 6.0632 74.2993 7.98182C73.5045 9.90045 73.2966 12.0116 73.7018 14.0484C74.1069 16.0852 75.1069 17.9562 76.5754 19.4246C78.0438 20.8931 79.9148 21.8931 81.9516 22.2982C83.9884 22.7034 86.0996 22.4955 88.0182 21.7007C89.9368 20.906 91.5767 19.5602 92.7304 17.8335C93.8842 16.1068 94.5 14.0767 94.5 12C94.5 9.21523 93.3938 6.54451 91.4246 4.57538C89.4555 2.60625 86.7848 1.5 84 1.5ZM82.5 16.1925L78.75 12.4425L79.9425 11.25L82.5 13.8075L88.0575 8.25L89.2545 9.4395L82.5 16.1925Z" fill="#578C3D"/>
</svg>
