<svg width="96" height="97" viewBox="0 0 96 97" fill="none" xmlns="http://www.w3.org/2000/svg">
<path d="M85.9114 4.46136C85.7216 4.12185 85.4446 3.83913 85.1091 3.64234C84.7735 3.44554 84.3916 3.3418 84.0026 3.3418C83.6136 3.3418 83.2317 3.44554 82.8962 3.64234C82.5607 3.83913 82.2837 4.12185 82.0938 4.46136L73.7781 19.3363C73.5921 19.669 73.4962 20.0445 73.5001 20.4257C73.504 20.8069 73.6074 21.1804 73.8001 21.5093C73.9928 21.8381 74.2682 22.1109 74.5988 22.3006C74.9295 22.4902 75.3039 22.5902 75.6851 22.5905H92.3131C92.6944 22.5905 93.0691 22.4907 93.4 22.3012C93.7309 22.1117 94.0065 21.8389 94.1994 21.51C94.3924 21.1811 94.4959 20.8074 94.4999 20.4261C94.5038 20.0448 94.408 19.6691 94.2219 19.3363L85.9114 4.46136ZM85.3131 17.7791C85.3131 18.1272 85.1748 18.4609 84.9287 18.707C84.6826 18.9531 84.3489 19.0913 84.0009 19.0913C83.6529 19.0913 83.3191 18.9531 83.073 18.707C82.8269 18.4609 82.6887 18.1272 82.6887 17.7791C82.6887 17.4311 82.8269 17.0974 83.073 16.8513C83.3191 16.6052 83.6529 16.467 84.0009 16.467C84.3489 16.467 84.6826 16.6052 84.9287 16.8513C85.1748 17.0974 85.3131 17.4311 85.3131 17.7791ZM83.1261 13.8426V9.46865C83.1261 9.23664 83.2183 9.01414 83.3823 8.85008C83.5464 8.68603 83.7689 8.59386 84.0009 8.59386C84.2329 8.59386 84.4554 8.68603 84.6194 8.85008C84.7835 9.01414 84.8757 9.23664 84.8757 9.46865V13.8426C84.8757 14.0746 84.7835 14.2971 84.6194 14.4612C84.4554 14.6252 84.2329 14.7174 84.0009 14.7174C83.7689 14.7174 83.5464 14.6252 83.3823 14.4612C83.2183 14.2971 83.1261 14.0746 83.1261 13.8426Z" fill="#AD7D00"/>
<path d="M25.8359 60.3018V64.9658H7.71875V60.3018H25.8359ZM9.38281 30.8408V64.9658H3.5V30.8408H9.38281ZM23.4688 45.0908V49.6846H7.71875V45.0908H23.4688ZM25.7188 30.8408V35.5283H7.71875V30.8408H25.7188ZM57.7109 30.8408V64.9658H51.8281L36.5234 40.5205V64.9658H30.6406V30.8408H36.5234L51.875 55.333V30.8408H57.7109ZM90.9219 47.5283V60.5596C90.4375 61.2002 89.6797 61.9033 88.6484 62.6689C87.6328 63.4189 86.2812 64.0674 84.5938 64.6143C82.9062 65.1611 80.8047 65.4346 78.2891 65.4346C76.1484 65.4346 74.1875 65.0752 72.4062 64.3564C70.625 63.6221 69.0859 62.5518 67.7891 61.1455C66.5078 59.7393 65.5156 58.0283 64.8125 56.0127C64.1094 53.9814 63.7578 51.6689 63.7578 49.0752V46.708C63.7578 44.1299 64.0781 41.833 64.7188 39.8174C65.375 37.7861 66.3125 36.0674 67.5312 34.6611C68.75 33.2549 70.2188 32.1924 71.9375 31.4736C73.6719 30.7393 75.6328 30.3721 77.8203 30.3721C80.6172 30.3721 82.9297 30.8408 84.7578 31.7783C86.6016 32.7002 88.0234 33.9814 89.0234 35.6221C90.0234 37.2627 90.6562 39.1377 90.9219 41.2471H85.1562C84.9688 40.0596 84.6016 38.9971 84.0547 38.0596C83.5234 37.1221 82.7578 36.3877 81.7578 35.8564C80.7734 35.3096 79.4922 35.0361 77.9141 35.0361C76.5547 35.0361 75.3594 35.2939 74.3281 35.8096C73.2969 36.3252 72.4375 37.083 71.75 38.083C71.0781 39.083 70.5703 40.3018 70.2266 41.7393C69.8828 43.1768 69.7109 44.8174 69.7109 46.6611V49.0752C69.7109 50.9502 69.9062 52.6143 70.2969 54.0674C70.7031 55.5205 71.2812 56.7471 72.0312 57.7471C72.7969 58.7471 73.7266 59.5049 74.8203 60.0205C75.9141 60.5205 77.1484 60.7705 78.5234 60.7705C79.8672 60.7705 80.9688 60.6611 81.8281 60.4424C82.6875 60.208 83.3672 59.9346 83.8672 59.6221C84.3828 59.2939 84.7812 58.9814 85.0625 58.6846V51.9111H77.9609V47.5283H90.9219Z" fill="#222222"/>
</svg>
