<svg width="96" height="97" viewBox="0 0 96 97" fill="none" xmlns="http://www.w3.org/2000/svg">
<path d="M30.4692 44.2843C30.7569 44.2843 31.0779 44.3286 31.4321 44.4171C31.7862 44.5056 32.1404 44.6274 32.4945 44.7823C32.8487 44.9373 33.2028 45.0812 33.557 45.214C33.9112 45.3468 34.2321 45.4796 34.5199 45.6124L33.9886 45.6788C33.8116 45.7009 33.6234 45.712 33.4242 45.712C33.0479 45.712 32.7048 45.6567 32.3949 45.546C32.085 45.4353 31.7973 45.2914 31.5317 45.1144C31.266 44.9373 31.0004 44.8045 30.7348 44.7159C30.4692 44.6274 30.2257 44.561 30.0044 44.5167C29.783 44.5167 29.5838 44.561 29.4067 44.6495C29.2296 44.7381 29.0526 44.8377 28.8755 44.9483C28.8755 44.8598 28.798 44.8155 28.6431 44.8155C28.798 44.6606 29.0858 44.5388 29.5063 44.4503C29.9269 44.3618 30.2478 44.3064 30.4692 44.2843ZM34.9515 45.7784C35.859 45.7784 36.6891 45.9333 37.4417 46.2432C37.1318 46.3539 36.8219 46.4424 36.512 46.5089C36.2021 46.5753 35.8812 46.6195 35.5491 46.6417C35.1064 46.6417 34.708 46.5974 34.3539 46.5089C34.4645 46.3318 34.5752 46.2211 34.6859 46.1768C34.7966 46.1326 34.8851 45.9997 34.9515 45.7784ZM48 14.9667C51.121 14.9667 54.1203 15.3762 56.9978 16.1952C59.8754 17.0141 62.5758 18.1541 65.0992 19.615C67.6226 21.0759 69.9246 22.8578 72.0053 24.9606C74.0859 27.0634 75.8567 29.3543 77.3176 31.8334C78.7785 34.3125 79.9295 37.013 80.7707 39.9348C81.6118 42.8566 82.0213 45.8669 81.9991 48.9658C81.9991 52.0868 81.5897 55.0861 80.7707 57.9636C79.9517 60.8412 78.8117 63.5416 77.3508 66.065C75.8899 68.5884 74.1081 70.8904 72.0053 72.9711C69.9024 75.0518 67.6115 76.8225 65.1324 78.2834C62.6533 79.7443 59.9528 80.8954 57.031 81.7365C54.1092 82.5776 51.0989 82.9871 48 82.965C44.879 82.965 41.8797 82.5555 39.0022 81.7365C36.1246 80.9175 33.4242 79.7775 30.9008 78.3166C28.3774 76.8557 26.0754 75.0739 23.9947 72.9711C21.9141 70.8683 20.1433 68.5773 18.6824 66.0982C17.2215 63.6191 16.0705 60.9186 15.2293 57.9968C14.3882 55.075 13.9787 52.0647 14.0009 48.9658C14.0009 45.8448 14.4103 42.8455 15.2293 39.968C16.0483 37.0905 17.1883 34.39 18.6492 31.8666C20.1101 29.3433 21.8919 27.0412 23.9947 24.9606C26.0976 22.8799 28.3885 21.1091 30.8676 19.6482C33.3467 18.1873 36.0472 17.0363 38.969 16.1952C41.8908 15.354 44.9011 14.9445 48 14.9667ZM73.3001 33.3939C72.9903 32.907 72.6804 32.4421 72.3705 31.9994C72.0606 31.5568 71.7396 31.103 71.4076 30.6382C71.3633 30.8374 71.308 30.9812 71.2416 31.0698C71.1752 31.1583 71.1309 31.3575 71.1088 31.6674C71.1088 31.8666 71.1863 32.0548 71.3412 32.2319C71.4962 32.4089 71.6954 32.586 71.9389 32.7631C72.1823 32.9402 72.4258 33.073 72.6693 33.1615C72.9128 33.2501 73.1231 33.3275 73.3001 33.3939ZM71.0092 30.1401C71.0092 30.3172 70.976 30.4389 70.9096 30.5053H71.1088C71.1973 30.5053 71.2637 30.5164 71.308 30.5385L71.0092 30.1401ZM48 78.7151C50.5234 78.7151 52.9914 78.3941 55.4041 77.7522C57.8168 77.1103 60.0967 76.2028 62.2438 75.0296C64.3909 73.8565 66.383 72.4177 68.2202 70.7133C70.0574 69.0089 71.6622 67.1053 73.0345 65.0025C72.7468 64.3385 72.4701 63.6634 72.2045 62.9772C71.9389 62.291 71.806 61.5827 71.806 60.8522C71.806 60.0554 71.8392 59.4135 71.9057 58.9265C71.9721 58.4395 72.0495 58.0079 72.1381 57.6316C72.2266 57.2553 72.2709 56.9344 72.2709 56.6688C72.2709 56.4031 72.2377 56.06 72.1713 55.6395C72.1049 55.2189 71.9167 54.7652 71.6068 54.2782C71.2969 53.7912 70.8874 53.105 70.3783 52.2196C70.4005 52.0647 70.4337 51.8544 70.478 51.5888C70.5222 51.3232 70.5665 51.0465 70.6108 50.7587C70.655 50.471 70.6661 50.2054 70.644 49.9619C70.6218 49.7184 70.5665 49.5081 70.478 49.331C69.9024 49.2646 69.3048 49.1429 68.685 48.9658C68.0653 48.7887 67.5119 48.5231 67.0249 48.169L67.2241 48.003C66.9364 48.0694 66.6486 48.1579 66.3609 48.2686C66.0731 48.3792 65.7964 48.501 65.5308 48.6338C65.2652 48.7666 64.9774 48.8551 64.6676 48.8994C64.3577 48.9437 64.0588 48.988 63.7711 49.0322L63.2399 48.9658L63.3395 48.7334C63.0296 48.8219 62.6975 48.9326 62.3434 49.0654C61.9892 49.1982 61.6461 49.2646 61.3141 49.2646C61.0928 49.2646 60.7718 49.1872 60.3513 49.0322C59.9307 48.8773 59.5101 48.6891 59.0896 48.4678C58.669 48.2464 58.2927 48.003 57.9607 47.7373C57.6287 47.4717 57.4627 47.2172 57.4627 46.9737L57.5291 46.8741C57.4184 46.7413 57.2745 46.6195 57.0974 46.5089C56.9204 46.3982 56.7543 46.2875 56.5994 46.1768C56.4445 46.0662 56.3006 45.9444 56.1678 45.8116C56.035 45.6788 55.9796 45.5238 56.0018 45.3468L56.367 45.048L55.6033 44.9483L55.3377 43.9523C55.382 44.0629 55.4816 44.1072 55.6365 44.0851C55.7915 44.0629 55.9132 44.0187 56.0018 43.9523L54.8065 43.3214L55.6365 41.1965C55.3266 40.0455 55.2492 39.1601 55.4041 38.5403C55.5591 37.9205 55.8579 37.4114 56.3006 37.013C56.7433 36.6146 57.2302 36.2161 57.7615 35.8177C58.2927 35.4193 58.835 34.877 59.3884 34.1908L59.2888 33.7924L61.4801 31.1362L61.9782 31.0698C62.5979 31.0698 63.2952 31.0476 64.0699 31.0034C64.8446 30.9591 65.6304 30.8816 66.4273 30.771C67.2241 30.6603 68.0099 30.5496 68.7846 30.4389C69.5594 30.3283 70.2677 30.1844 70.9096 30.0073C70.2013 29.1662 69.4598 28.3693 68.685 27.6167C67.9103 26.8642 67.0803 26.1448 66.1949 25.4586C65.9514 25.5471 65.6526 25.6689 65.2984 25.8238C64.9442 25.9788 64.5901 26.178 64.2359 26.4215C63.8818 26.6649 63.6051 26.9306 63.4059 27.2183C63.2067 27.5061 63.0849 27.8049 63.0406 28.1148L63.2399 28.7456C62.8414 29.3875 62.3987 29.786 61.9118 29.9409C61.4248 30.0959 60.9268 30.1844 60.4177 30.2065C59.9086 30.2287 59.3773 30.2287 58.8239 30.2065C58.2706 30.1844 57.7393 30.284 57.2302 30.5053L56.699 29.3765L57.197 27.4507L56.6326 26.6207L62.3766 24.8278C62.1331 24.208 61.7347 23.7431 61.1813 23.4333C60.6279 23.1234 60.0192 22.9684 59.3552 22.9684V22.6364L61.2145 22.3376C59.156 21.3194 57.02 20.5447 54.8065 20.0134C52.593 19.4822 50.3242 19.2166 48 19.2166C46.0743 19.2166 44.1707 19.4047 42.2892 19.781C40.4077 20.1573 38.5927 20.6996 36.844 21.4079C35.0954 22.1162 33.4021 23.0016 31.7641 24.0641C30.1261 25.1266 28.632 26.3219 27.2818 27.6499C27.8573 27.6499 28.3 27.7938 28.6099 28.0816C28.9197 28.3693 29.2075 28.6903 29.4731 29.0444C29.7387 29.3986 30.0154 29.7196 30.3032 30.0073C30.5909 30.2951 30.9783 30.45 31.4653 30.4721L31.9965 30.0737L31.9301 29.3433L33.0258 27.7828L32.1625 25.3258C32.2732 25.2594 32.4392 25.1487 32.6605 24.9938C32.8819 24.8388 33.07 24.7613 33.225 24.7613C33.889 24.7613 34.3981 24.7946 34.7523 24.861C35.1064 24.9274 35.4163 25.0491 35.6819 25.2262C35.9476 25.4033 36.18 25.6578 36.3792 25.9898C36.5784 26.3219 36.8883 26.7424 37.3089 27.2515L38.5041 26.3219C38.7255 26.4104 39.0797 26.5543 39.5666 26.7535C40.0536 26.9527 40.5516 27.1962 41.0607 27.4839C41.5698 27.7717 42.0015 28.0705 42.3556 28.3804C42.7098 28.6903 42.8979 28.978 42.92 29.2437C42.92 29.5757 42.7983 29.8413 42.5548 30.0405C42.3113 30.2397 41.9904 30.4057 41.592 30.5385C41.1935 30.6714 40.784 30.771 40.3635 30.8374C39.9429 30.9038 39.5223 30.9923 39.1018 31.103C38.6812 31.2137 38.3603 31.3243 38.1389 31.435C37.9176 31.5457 37.7848 31.7338 37.7405 31.9994L39.6662 32.6303C39.2235 33.0066 38.7476 33.3497 38.2385 33.6596C37.7294 33.9695 37.1982 34.2572 36.6448 34.5228L36.7776 35.0873L33.723 36.2825V37.2122L33.4906 37.3118L33.6566 36.1497L33.5238 36.1165C33.3689 36.1165 33.2803 36.1497 33.2582 36.2161C33.236 36.2825 33.225 36.36 33.225 36.4486C33.225 36.5371 33.2471 36.6256 33.2914 36.7142C33.3357 36.8027 33.3467 36.8691 33.3246 36.9134L32.893 36.681L32.9594 36.8138C32.9594 36.8802 32.9926 36.9798 33.059 37.1126C33.1254 37.2454 33.2139 37.3672 33.3246 37.4778C33.4353 37.5885 33.5238 37.6992 33.5902 37.8098C33.6566 37.9205 33.7009 37.9759 33.723 37.9759C33.723 38.0423 33.6787 38.1087 33.5902 38.1751C33.5017 38.2415 33.391 38.2857 33.2582 38.3079C33.1254 38.33 33.0368 38.3632 32.9926 38.4075C32.9483 38.4518 32.9483 38.4628 32.9926 38.4407C33.3025 38.4407 33.3689 38.4628 33.1918 38.5071C33.0147 38.5514 32.738 38.662 32.3617 38.8391C31.9854 39.0162 31.6423 39.2708 31.3324 39.6028C31.0226 39.9348 30.8455 40.4218 30.8012 41.0637C30.8012 41.44 30.8123 41.8052 30.8344 42.1594C30.8565 42.5135 30.8455 42.8787 30.8012 43.255C30.4913 42.4139 30.0265 41.772 29.4067 41.3293C28.7869 40.8866 28.0344 40.6652 27.149 40.6652L25.7213 40.7981L26.4185 41.2629C26.0422 41.2186 25.6549 41.1743 25.2564 41.1301C24.858 41.0858 24.4485 41.0747 24.0279 41.0969C23.6074 41.119 23.2311 41.2076 22.8991 41.3625C22.567 41.5174 22.235 41.7499 21.903 42.0597L21.7038 43.5538C21.7038 44.2622 21.8587 44.8377 22.1686 45.2804C22.4785 45.7231 23.0208 45.9555 23.7955 45.9776C24.4596 45.9776 25.1126 45.878 25.7545 45.6788C26.3964 45.4796 27.0272 45.2472 27.647 44.9815C27.4478 45.4685 27.2264 45.9333 26.9829 46.376C26.7395 46.8187 26.5624 47.3057 26.4517 47.8369L26.8833 48.0362C27.4146 47.682 27.9015 47.6267 28.3442 47.8701C28.7869 48.1136 29.2186 48.4678 29.6391 48.9326C30.0597 49.3975 30.4913 49.8734 30.934 50.3603C31.3767 50.8473 31.8526 51.2014 32.3617 51.4228L31.2328 52.0204L28.5767 50.5263C28.5988 50.5706 28.6209 50.6702 28.6431 50.8251C28.6652 50.9801 28.6541 51.0133 28.6099 50.9248L27.4146 48.8994C26.7063 48.8773 25.9537 48.7666 25.1568 48.5674C24.36 48.3682 23.552 48.1026 22.7331 47.7705C21.9141 47.4385 21.1504 47.0733 20.4421 46.6749C19.7338 46.2764 19.0808 45.8559 18.4832 45.4132L18.2507 48.9658C18.2507 51.6663 18.616 54.3003 19.3464 56.868C20.0769 59.4356 21.1061 61.8483 22.4342 64.1061C23.7623 66.3638 25.3892 68.4224 27.315 70.2817C29.2407 72.141 31.3767 73.7237 33.723 75.0296C33.6123 74.5648 33.6013 74.1 33.6898 73.6351C33.7784 73.1703 33.889 72.7055 34.0218 72.2406C34.1546 71.7758 34.2985 71.311 34.4535 70.8461C34.6084 70.3813 34.6859 69.9054 34.6859 69.4184C34.6859 68.7101 34.5752 67.9686 34.3539 67.1939C34.1325 66.4192 33.8669 65.6334 33.557 64.8365C33.2471 64.0397 32.904 63.2539 32.5277 62.4792C32.1514 61.7044 31.8526 60.974 31.6313 60.2878C31.4099 59.6016 31.2328 58.9597 31.1 58.3621C30.9672 57.7644 31.0336 57.2443 31.2992 56.8016L30.8012 56.5691C30.934 56.2593 31.1111 55.9604 31.3324 55.6727C31.5538 55.3849 31.7862 55.0972 32.0297 54.8094C32.2732 54.5217 32.4613 54.2118 32.5941 53.8798C32.7269 53.5477 32.8044 53.2157 32.8266 52.8837C32.8266 52.6623 32.7823 52.4299 32.6937 52.1864C32.6052 51.943 32.5277 51.7105 32.4613 51.4892L33.1586 51.6552C33.5349 50.7919 34.044 50.2054 34.6859 49.8955C35.3278 49.5856 36.1357 49.4196 37.1096 49.3975C37.2203 49.3975 37.4527 49.4417 37.8069 49.5303C38.1611 49.6188 38.5373 49.7405 38.9358 49.8955C39.3342 50.0504 39.7105 50.1722 40.0647 50.2607C40.4188 50.3492 40.6844 50.4378 40.8615 50.5263C40.8615 50.6813 40.95 50.7809 41.1271 50.8251C41.3042 50.8694 41.4038 50.9469 41.4259 51.0576L41.3595 51.3232C41.4259 51.3453 41.5809 51.4228 41.8244 51.5556C42.0679 51.6884 42.3335 51.8544 42.6212 52.0536C42.909 52.2528 43.1635 52.4299 43.3849 52.5849C43.6062 52.7398 43.7612 52.8616 43.8497 52.9501C44.2481 52.9501 44.7904 53.0829 45.4766 53.3485C46.1628 53.6141 46.9154 53.9462 47.7344 54.3446C48.5534 54.743 49.3613 55.2189 50.1581 55.7723C50.955 56.3257 51.7076 56.879 52.4159 57.4324C53.1242 57.9858 53.6665 58.5391 54.0428 59.0925C54.4191 59.6459 54.6405 60.1329 54.7069 60.5534L53.578 61.7487C53.6665 62.8776 53.5891 63.7408 53.3456 64.3385C53.1021 64.9361 52.7258 65.4342 52.2167 65.8326C51.7076 66.231 51.121 66.563 50.457 66.8287C49.7929 67.0943 49.0735 67.4706 48.2988 67.9575C48.2988 68.4002 48.1881 68.8761 47.9668 69.3852C47.7454 69.8943 47.4688 70.3813 47.1367 70.8461C46.8047 71.311 46.4063 71.6983 45.9415 72.0082C45.4766 72.3181 45.0118 72.473 44.547 72.473L43.1525 71.4106C43.1967 71.4548 43.1967 71.5323 43.1525 71.643C43.1082 71.7537 43.0529 71.7758 42.9865 71.7094C43.2078 72.13 43.2631 72.6169 43.1525 73.1703C43.0418 73.7237 42.8536 74.2881 42.588 74.8636C42.3224 75.4391 42.0236 75.9814 41.6916 76.4905C41.3595 76.9996 41.0607 77.4313 40.7951 77.7854C41.9904 78.0953 43.1857 78.3277 44.381 78.4827C45.5762 78.6376 46.7826 78.7151 48 78.7151Z" fill="#222222"/>
<path d="M85.9114 4.46136C85.7216 4.12185 85.4446 3.83913 85.1091 3.64234C84.7735 3.44554 84.3916 3.3418 84.0026 3.3418C83.6136 3.3418 83.2317 3.44554 82.8962 3.64234C82.5607 3.83913 82.2837 4.12185 82.0938 4.46136L73.7781 19.3363C73.5921 19.669 73.4962 20.0445 73.5001 20.4257C73.504 20.8069 73.6074 21.1804 73.8001 21.5093C73.9928 21.8381 74.2682 22.1109 74.5988 22.3006C74.9295 22.4902 75.3039 22.5902 75.6851 22.5905H92.3131C92.6944 22.5905 93.0691 22.4907 93.4 22.3012C93.7309 22.1117 94.0065 21.8389 94.1994 21.51C94.3924 21.1811 94.4959 20.8074 94.4999 20.4261C94.5038 20.0448 94.408 19.6691 94.2219 19.3363L85.9114 4.46136ZM85.3131 17.7791C85.3131 18.1272 85.1748 18.4609 84.9287 18.707C84.6826 18.9531 84.3489 19.0913 84.0009 19.0913C83.6529 19.0913 83.3191 18.9531 83.073 18.707C82.8269 18.4609 82.6887 18.1272 82.6887 17.7791C82.6887 17.4311 82.8269 17.0974 83.073 16.8513C83.3191 16.6052 83.6529 16.467 84.0009 16.467C84.3489 16.467 84.6826 16.6052 84.9287 16.8513C85.1748 17.0974 85.3131 17.4311 85.3131 17.7791ZM83.1261 13.8426V9.46865C83.1261 9.23664 83.2183 9.01414 83.3823 8.85008C83.5464 8.68603 83.7689 8.59386 84.0009 8.59386C84.2329 8.59386 84.4554 8.68603 84.6194 8.85008C84.7835 9.01414 84.8757 9.23664 84.8757 9.46865V13.8426C84.8757 14.0746 84.7835 14.2971 84.6194 14.4612C84.4554 14.6252 84.2329 14.7174 84.0009 14.7174C83.7689 14.7174 83.5464 14.6252 83.3823 14.4612C83.2183 14.2971 83.1261 14.0746 83.1261 13.8426Z" fill="#AD7D00"/>
</svg>
