<svg width="127" height="127" viewBox="0 0 127 127" fill="none" xmlns="http://www.w3.org/2000/svg">
<g filter="url(#filter0_d_1079_1968)">
<mask id="path-1-inside-1_1079_1968" fill="white">
<path fill-rule="evenodd" clip-rule="evenodd" d="M19.7202 23.5995L39.0166 12.1745L56.5072 1.81397C56.6774 1.71486 56.8699 1.66318 57.0656 1.66407C57.2613 1.66496 57.4534 1.71839 57.6228 1.81903C57.7921 1.91968 57.9328 2.06404 58.0309 2.23776C58.1289 2.41149 58.181 2.60852 58.1818 2.80926V120.514C58.1817 120.718 58.1287 120.919 58.0283 121.095C57.9279 121.271 57.7836 121.416 57.6103 121.516C57.437 121.616 57.2408 121.667 57.042 121.664C56.8432 121.66 56.6488 121.603 56.4788 121.497L39.5435 110.956C39.3801 110.853 39.2453 110.708 39.1522 110.535C39.059 110.363 39.0105 110.169 39.0113 109.972V69.9417C39.0108 69.7398 38.9587 69.5416 38.86 69.367C38.7613 69.1923 38.6197 69.0473 38.4492 68.9465C38.2787 68.8457 38.0853 68.7926 37.8885 68.7926C37.6917 68.7926 37.4984 68.8456 37.3279 68.9464L20.2807 79.0431C20.1101 79.1441 19.9685 79.2895 19.8701 79.4645C19.7717 79.6396 19.72 79.8382 19.7202 80.0402V97.2059C19.7203 97.408 19.6684 97.6065 19.5699 97.7815C19.4714 97.9565 19.3296 98.1017 19.1589 98.2026C18.9883 98.3036 18.7947 98.3566 18.5977 98.3563C18.4007 98.3561 18.2072 98.3026 18.0368 98.2012L3.92188 89.8421C3.75129 89.7416 3.60963 89.5965 3.5112 89.4218C3.41277 89.247 3.36107 89.0487 3.36133 88.8469V33.9509C3.36112 33.7489 3.41282 33.5503 3.51123 33.3753C3.60964 33.2002 3.75128 33.0548 3.92188 32.9538L19.7202 23.5995ZM21.4072 59.6339L38.4561 49.5354L38.5237 49.4879C38.6197 49.4206 38.7109 49.3455 38.7784 49.2497C38.8049 49.2121 38.8341 49.1672 38.8635 49.1154C38.9628 48.9407 39.0156 48.7423 39.0166 48.5401V32.912C39.0162 32.7101 38.964 32.5119 38.8653 32.3372C38.7667 32.1626 38.625 32.0176 38.4545 31.9168C38.284 31.816 38.0906 31.7629 37.8938 31.7629C37.697 31.7629 37.5037 31.8159 37.3332 31.9167L20.2861 42.0134C20.1155 42.1144 19.9738 42.2598 19.8754 42.4348C19.777 42.6099 19.7253 42.8084 19.7255 43.0105V58.6368C19.7253 58.8388 19.7769 59.0372 19.8753 59.2122C19.9736 59.3872 20.1151 59.5325 20.2855 59.6336C20.456 59.7347 20.6494 59.7879 20.8463 59.788C21.0432 59.788 21.2366 59.7349 21.4072 59.6339ZM87.486 12.4328L105.988 23.392L122.801 33.3468C122.971 33.448 123.112 33.5931 123.21 33.7677C123.309 33.9424 123.361 34.1404 123.361 34.3421V89.0761C123.361 89.2754 123.31 89.4712 123.214 89.6444C123.118 89.8176 122.98 89.9623 122.813 90.0642C122.646 90.1662 122.456 90.2219 122.262 90.2261C122.067 90.2302 121.875 90.1825 121.704 90.0878L105.981 80.7807L89.1606 70.8205C88.9901 70.7195 88.7967 70.6664 88.5998 70.6664C88.4029 70.6665 88.2094 70.7197 88.039 70.8208C87.8685 70.9219 87.727 71.0672 87.6287 71.2422C87.5304 71.4172 87.4787 71.6157 87.479 71.8176V109.708C87.4798 109.905 87.4313 110.099 87.3381 110.271C87.2449 110.444 87.1102 110.589 86.9468 110.692L69.7861 121.366C69.616 121.472 69.4215 121.529 69.2225 121.533C69.0235 121.536 68.8273 121.485 68.6539 121.385C68.4805 121.285 68.3363 121.139 68.236 120.962C68.1357 120.786 68.0829 120.586 68.0832 120.382V2.93114C68.0836 2.72948 68.1357 2.53148 68.2343 2.357C68.3328 2.18252 68.4744 2.0377 68.6448 1.93705C68.8151 1.83641 69.0083 1.78349 69.2049 1.78359C69.4015 1.7837 69.5946 1.83683 69.7648 1.93766L87.486 12.4328ZM88.0466 50.4888L104.306 60.1197C104.477 60.2207 104.67 60.2738 104.867 60.2738C105.064 60.2737 105.257 60.2205 105.428 60.1194C105.598 60.0183 105.74 59.873 105.838 59.698C105.936 59.523 105.988 59.3246 105.988 59.1226V43.7201C105.988 43.5182 105.936 43.3199 105.838 43.1451C105.739 42.9704 105.598 42.8254 105.427 42.7248L89.1677 33.0957C88.9972 32.9947 88.8037 32.9416 88.6069 32.9416C88.41 32.9417 88.2165 32.9949 88.0461 33.096C87.8756 33.1971 87.7341 33.3424 87.6358 33.5174C87.5375 33.6924 87.4858 33.8909 87.486 34.0928V49.4935C87.4862 49.6953 87.538 49.8935 87.6364 50.0682C87.7348 50.2429 87.8763 50.3879 88.0466 50.4888Z"/>
</mask>
<path fill-rule="evenodd" clip-rule="evenodd" d="M19.7202 23.5995L39.0166 12.1745L56.5072 1.81397C56.6774 1.71486 56.8699 1.66318 57.0656 1.66407C57.2613 1.66496 57.4534 1.71839 57.6228 1.81903C57.7921 1.91968 57.9328 2.06404 58.0309 2.23776C58.1289 2.41149 58.181 2.60852 58.1818 2.80926V120.514C58.1817 120.718 58.1287 120.919 58.0283 121.095C57.9279 121.271 57.7836 121.416 57.6103 121.516C57.437 121.616 57.2408 121.667 57.042 121.664C56.8432 121.66 56.6488 121.603 56.4788 121.497L39.5435 110.956C39.3801 110.853 39.2453 110.708 39.1522 110.535C39.059 110.363 39.0105 110.169 39.0113 109.972V69.9417C39.0108 69.7398 38.9587 69.5416 38.86 69.367C38.7613 69.1923 38.6197 69.0473 38.4492 68.9465C38.2787 68.8457 38.0853 68.7926 37.8885 68.7926C37.6917 68.7926 37.4984 68.8456 37.3279 68.9464L20.2807 79.0431C20.1101 79.1441 19.9685 79.2895 19.8701 79.4645C19.7717 79.6396 19.72 79.8382 19.7202 80.0402V97.2059C19.7203 97.408 19.6684 97.6065 19.5699 97.7815C19.4714 97.9565 19.3296 98.1017 19.1589 98.2026C18.9883 98.3036 18.7947 98.3566 18.5977 98.3563C18.4007 98.3561 18.2072 98.3026 18.0368 98.2012L3.92188 89.8421C3.75129 89.7416 3.60963 89.5965 3.5112 89.4218C3.41277 89.247 3.36107 89.0487 3.36133 88.8469V33.9509C3.36112 33.7489 3.41282 33.5503 3.51123 33.3753C3.60964 33.2002 3.75128 33.0548 3.92188 32.9538L19.7202 23.5995ZM21.4072 59.6339L38.4561 49.5354L38.5237 49.4879C38.6197 49.4206 38.7109 49.3455 38.7784 49.2497C38.8049 49.2121 38.8341 49.1672 38.8635 49.1154C38.9628 48.9407 39.0156 48.7423 39.0166 48.5401V32.912C39.0162 32.7101 38.964 32.5119 38.8653 32.3372C38.7667 32.1626 38.625 32.0176 38.4545 31.9168C38.284 31.816 38.0906 31.7629 37.8938 31.7629C37.697 31.7629 37.5037 31.8159 37.3332 31.9167L20.2861 42.0134C20.1155 42.1144 19.9738 42.2598 19.8754 42.4348C19.777 42.6099 19.7253 42.8084 19.7255 43.0105V58.6368C19.7253 58.8388 19.7769 59.0372 19.8753 59.2122C19.9736 59.3872 20.1151 59.5325 20.2855 59.6336C20.456 59.7347 20.6494 59.7879 20.8463 59.788C21.0432 59.788 21.2366 59.7349 21.4072 59.6339ZM87.486 12.4328L105.988 23.392L122.801 33.3468C122.971 33.448 123.112 33.5931 123.21 33.7677C123.309 33.9424 123.361 34.1404 123.361 34.3421V89.0761C123.361 89.2754 123.31 89.4712 123.214 89.6444C123.118 89.8176 122.98 89.9623 122.813 90.0642C122.646 90.1662 122.456 90.2219 122.262 90.2261C122.067 90.2302 121.875 90.1825 121.704 90.0878L105.981 80.7807L89.1606 70.8205C88.9901 70.7195 88.7967 70.6664 88.5998 70.6664C88.4029 70.6665 88.2094 70.7197 88.039 70.8208C87.8685 70.9219 87.727 71.0672 87.6287 71.2422C87.5304 71.4172 87.4787 71.6157 87.479 71.8176V109.708C87.4798 109.905 87.4313 110.099 87.3381 110.271C87.2449 110.444 87.1102 110.589 86.9468 110.692L69.7861 121.366C69.616 121.472 69.4215 121.529 69.2225 121.533C69.0235 121.536 68.8273 121.485 68.6539 121.385C68.4805 121.285 68.3363 121.139 68.236 120.962C68.1357 120.786 68.0829 120.586 68.0832 120.382V2.93114C68.0836 2.72948 68.1357 2.53148 68.2343 2.357C68.3328 2.18252 68.4744 2.0377 68.6448 1.93705C68.8151 1.83641 69.0083 1.78349 69.2049 1.78359C69.4015 1.7837 69.5946 1.83683 69.7648 1.93766L87.486 12.4328ZM88.0466 50.4888L104.306 60.1197C104.477 60.2207 104.67 60.2738 104.867 60.2738C105.064 60.2737 105.257 60.2205 105.428 60.1194C105.598 60.0183 105.74 59.873 105.838 59.698C105.936 59.523 105.988 59.3246 105.988 59.1226V43.7201C105.988 43.5182 105.936 43.3199 105.838 43.1451C105.739 42.9704 105.598 42.8254 105.427 42.7248L89.1677 33.0957C88.9972 32.9947 88.8037 32.9416 88.6069 32.9416C88.41 32.9417 88.2165 32.9949 88.0461 33.096C87.8756 33.1971 87.7341 33.3424 87.6358 33.5174C87.5375 33.6924 87.4858 33.8909 87.486 34.0928V49.4935C87.4862 49.6953 87.538 49.8935 87.6364 50.0682C87.7348 50.2429 87.8763 50.3879 88.0466 50.4888Z" fill="#222222"/>
<path d="M39.0166 12.1745L40.0356 13.8955L40.0359 13.8953L39.0166 12.1745ZM19.7202 23.5995L18.7012 21.8785L18.7012 21.8785L19.7202 23.5995ZM56.5072 1.81397L55.5008 0.0856272L55.4943 0.0893892L55.4879 0.0931994L56.5072 1.81397ZM57.0656 1.66407L57.0566 3.66405L57.0566 3.66405L57.0656 1.66407ZM57.6228 1.81903L58.6446 0.0997883L58.6446 0.0997883L57.6228 1.81903ZM58.0309 2.23776L59.7725 1.25455L59.7725 1.25455L58.0309 2.23776ZM58.1818 2.80926L60.1818 2.80926L60.1818 2.80121L58.1818 2.80926ZM58.1818 120.514L60.1818 120.515V120.514H58.1818ZM57.6103 121.516L56.6108 119.784L56.6108 119.784L57.6103 121.516ZM57.042 121.664L57.0079 123.663L57.0079 123.663L57.042 121.664ZM56.4788 121.497L57.5361 119.799L57.5357 119.799L56.4788 121.497ZM39.5435 110.956L38.472 112.645L38.4793 112.65L38.4866 112.654L39.5435 110.956ZM39.1522 110.535L37.3928 111.486L37.3928 111.486L39.1522 110.535ZM39.0113 109.972L41.0113 109.98V109.972H39.0113ZM39.0113 69.9417L41.0113 69.9417L41.0113 69.9372L39.0113 69.9417ZM38.86 69.367L40.6014 68.3834L40.6014 68.3834L38.86 69.367ZM38.4492 68.9465L39.467 67.2249L39.467 67.2249L38.4492 68.9465ZM37.8885 68.7926L37.8888 66.7926L37.8887 66.7926L37.8885 68.7926ZM37.3279 68.9464L36.3103 67.2246L36.3086 67.2256L37.3279 68.9464ZM20.2807 79.0431L21.2999 80.764L21.2999 80.7639L20.2807 79.0431ZM19.7202 80.0402L21.7202 80.0402L21.7202 80.0382L19.7202 80.0402ZM19.7202 97.2059L17.7202 97.2059L17.7202 97.2067L19.7202 97.2059ZM19.5699 97.7815L17.8272 96.8002L17.8272 96.8002L19.5699 97.7815ZM19.1589 98.2026L20.1768 99.9243L20.1768 99.9242L19.1589 98.2026ZM18.5977 98.3563L18.6003 96.3563L18.6002 96.3563L18.5977 98.3563ZM18.0368 98.2012L19.0591 96.4822L19.0559 96.4803L18.0368 98.2012ZM3.92188 89.8421L4.94101 88.1213L4.93779 88.1194L3.92188 89.8421ZM3.5112 89.4218L1.76857 90.4032L1.76857 90.4032L3.5112 89.4218ZM3.36133 88.8469L5.36133 88.8494V88.8469H3.36133ZM3.36133 33.9509L5.36133 33.9509L5.36133 33.9489L3.36133 33.9509ZM3.51123 33.3753L1.76783 32.3952L1.76783 32.3952L3.51123 33.3753ZM3.92188 32.9538L2.90289 31.2329L2.90276 31.2329L3.92188 32.9538ZM38.4561 49.5354L39.4753 51.2562L39.5417 51.2169L39.6048 51.1726L38.4561 49.5354ZM21.4072 59.6339L22.4263 61.3548L22.4264 61.3547L21.4072 59.6339ZM38.8635 49.1154L37.1249 48.1269L37.1248 48.1269L38.8635 49.1154ZM39.0166 48.5401L41.0166 48.55V48.5401H39.0166ZM39.0166 32.912L41.0166 32.912L41.0166 32.9074L39.0166 32.912ZM38.8653 32.3372L37.1239 33.3208L37.1239 33.3209L38.8653 32.3372ZM38.4545 31.9168L37.4366 33.6384L37.4366 33.6384L38.4545 31.9168ZM37.3332 31.9167L36.3156 30.1949L36.314 30.1958L37.3332 31.9167ZM20.2861 42.0134L21.3052 43.7342L21.3053 43.7342L20.2861 42.0134ZM19.7255 43.0105L21.7255 43.0105L21.7255 43.0084L19.7255 43.0105ZM19.7255 58.6368L21.7255 58.6389V58.6368H19.7255ZM19.8753 59.2122L21.6189 58.2326L21.6189 58.2326L19.8753 59.2122ZM20.2855 59.6336L19.2655 61.3539L19.2655 61.3539L20.2855 59.6336ZM105.988 23.392L104.968 25.1128L104.969 25.113L105.988 23.392ZM87.486 12.4328L88.5053 10.7121L88.5052 10.712L87.486 12.4328ZM122.801 33.3468L123.823 31.6278L123.82 31.6258L122.801 33.3468ZM123.21 33.7677L121.468 34.7491L121.468 34.7492L123.21 33.7677ZM123.361 34.3421L125.361 34.3421L125.361 34.3376L123.361 34.3421ZM123.361 89.0761L125.361 89.0788V89.0761H123.361ZM123.214 89.6444L124.963 90.6151L124.963 90.615L123.214 89.6444ZM122.813 90.0642L121.771 88.3573L121.77 88.3573L122.813 90.0642ZM122.262 90.2261L122.304 92.2256L122.304 92.2256L122.262 90.2261ZM121.704 90.0878L120.686 91.8089L120.71 91.8232L120.735 91.8369L121.704 90.0878ZM105.981 80.7807L104.962 82.5017L104.962 82.5018L105.981 80.7807ZM89.1606 70.8205L88.1415 72.5414L88.1415 72.5414L89.1606 70.8205ZM88.5998 70.6664L88.5992 68.6664L88.5998 70.6664ZM87.6287 71.2422L85.8851 70.2626L85.885 70.2626L87.6287 71.2422ZM87.479 71.8176L89.479 71.8176L89.4789 71.8155L87.479 71.8176ZM87.479 109.708L85.4789 109.708L85.479 109.716L87.479 109.708ZM87.3381 110.271L89.0974 111.223L89.0975 111.223L87.3381 110.271ZM86.9468 110.692L88.0031 112.391L88.0107 112.386L88.0183 112.381L86.9468 110.692ZM69.7861 121.366L68.7298 119.668L68.7288 119.668L69.7861 121.366ZM69.2225 121.533L69.1892 119.533L69.1891 119.533L69.2225 121.533ZM68.6539 121.385L67.6529 123.116L67.653 123.116L68.6539 121.385ZM68.236 120.962L66.4976 121.951L66.4976 121.951L68.236 120.962ZM68.0832 120.382L70.0832 120.384V120.382H68.0832ZM68.0832 2.93114L66.0832 2.92705V2.93114H68.0832ZM68.2343 2.357L66.4929 1.37325L66.4929 1.3733L68.2343 2.357ZM69.2049 1.78359L69.206 -0.216406L69.206 -0.216406L69.2049 1.78359ZM69.7648 1.93766L70.784 0.21681L70.784 0.216788L69.7648 1.93766ZM104.306 60.1197L103.287 61.8405L103.287 61.8406L104.306 60.1197ZM88.0466 50.4888L89.0659 48.768L89.0657 48.7679L88.0466 50.4888ZM104.867 60.2738L104.866 58.2738L104.867 60.2738ZM105.428 60.1194L106.448 61.8397L106.448 61.8397L105.428 60.1194ZM105.988 59.1226L103.988 59.1226L103.988 59.1246L105.988 59.1226ZM105.988 43.7201L103.988 43.7175V43.7201H105.988ZM105.427 42.7248L104.408 44.4457L104.411 44.4475L105.427 42.7248ZM89.1677 33.0957L90.1868 31.3748L90.1868 31.3748L89.1677 33.0957ZM88.6069 32.9416L88.6063 30.9416L88.6063 30.9416L88.6069 32.9416ZM87.6358 33.5174L89.3794 34.497L89.3795 34.497L87.6358 33.5174ZM87.486 34.0928L89.486 34.0928L89.486 34.0908L87.486 34.0928ZM87.486 49.4935H85.486L85.486 49.4946L87.486 49.4935ZM38.5237 49.4879L39.6724 51.1252L38.5237 49.4879ZM38.7784 49.2497L40.4136 50.4013L38.7784 49.2497ZM37.9977 10.4535L18.7012 21.8785L20.7391 25.3205L40.0356 13.8955L37.9977 10.4535ZM55.4879 0.0931994L37.9973 10.4537L40.0359 13.8953L57.5265 3.53473L55.4879 0.0931994ZM57.0747 -0.335906C56.52 -0.338425 55.9772 -0.191756 55.5008 0.0856272L57.5136 3.54231C57.3776 3.62148 57.2199 3.66479 57.0566 3.66405L57.0747 -0.335906ZM58.6446 0.0997883C58.1709 -0.181796 57.6295 -0.333386 57.0747 -0.335906L57.0566 3.66405C56.8932 3.66331 56.736 3.61857 56.6009 3.53828L58.6446 0.0997883ZM59.7725 1.25455C59.5051 0.780948 59.118 0.381139 58.6446 0.0997883L56.6009 3.53828C56.4662 3.45822 56.3604 3.34714 56.2892 3.22097L59.7725 1.25455ZM60.1818 2.80121C60.1796 2.26089 60.0397 1.72784 59.7725 1.25455L56.2892 3.22097C56.2182 3.09514 56.1823 2.95614 56.1818 2.81732L60.1818 2.80121ZM60.1818 120.514V2.80926H56.1818V120.514H60.1818ZM59.7656 122.086C60.0392 121.606 60.1816 121.064 60.1818 120.515L56.1818 120.514C56.1818 120.373 56.2183 120.231 56.2911 120.104L59.7656 122.086ZM58.6098 123.249C59.0946 122.969 59.4917 122.566 59.7656 122.086L56.2911 120.104C56.364 119.976 56.4726 119.864 56.6108 119.784L58.6098 123.249ZM57.0079 123.663C57.5715 123.673 58.1246 123.529 58.6098 123.249L56.6108 119.784C56.7493 119.704 56.9102 119.661 57.0762 119.664L57.0079 123.663ZM55.4215 123.195C55.8967 123.491 56.4443 123.654 57.0079 123.663L57.0762 119.664C57.2421 119.667 57.401 119.715 57.5361 119.799L55.4215 123.195ZM38.4866 112.654L55.422 123.195L57.5357 119.799L40.6003 109.258L38.4866 112.654ZM37.3928 111.486C37.6463 111.955 38.0162 112.356 38.472 112.645L40.6149 109.267C40.7439 109.349 40.8443 109.46 40.9115 109.584L37.3928 111.486ZM37.0113 109.964C37.0091 110.494 37.1394 111.018 37.3928 111.486L40.9115 109.584C40.9786 109.708 41.0118 109.844 41.0113 109.98L37.0113 109.964ZM37.0113 69.9417V109.972H41.0113V69.9417H37.0113ZM37.1186 70.3506C37.0474 70.2246 37.0116 70.0853 37.0113 69.9462L41.0113 69.9372C41.0101 69.3944 40.8699 68.8587 40.6014 68.3834L37.1186 70.3506ZM37.4313 70.6681C37.2961 70.5882 37.19 70.477 37.1186 70.3506L40.6014 68.3834C40.3327 67.9076 39.9432 67.5064 39.467 67.2249L37.4313 70.6681ZM37.8883 70.7926C37.7247 70.7926 37.5669 70.7483 37.4313 70.6681L39.467 67.2249C38.9904 66.9431 38.446 66.7927 37.8888 66.7926L37.8883 70.7926ZM38.3454 70.6682C38.2098 70.7484 38.052 70.7926 37.8884 70.7926L37.8887 66.7926C37.3315 66.7926 36.787 66.9429 36.3103 67.2246L38.3454 70.6682ZM21.2999 80.7639L38.3471 70.6672L36.3086 67.2256L19.2615 77.3223L21.2999 80.7639ZM21.6135 80.4446C21.542 80.5717 21.4356 80.6836 21.2999 80.764L19.2616 77.3222C18.7847 77.6047 18.395 78.0072 18.1267 78.4844L21.6135 80.4446ZM21.7202 80.0382C21.7203 80.1778 21.6848 80.3178 21.6135 80.4446L18.1267 78.4844C17.8586 78.9613 17.7196 79.4985 17.7202 80.0423L21.7202 80.0382ZM21.7202 97.2059V80.0402H17.7202V97.2059H21.7202ZM21.3126 98.7628C21.5811 98.286 21.7204 97.7489 21.7202 97.2051L17.7202 97.2067C17.7201 97.067 17.7558 96.927 17.8272 96.8002L21.3126 98.7628ZM20.1768 99.9242C20.6539 99.6422 21.044 99.2398 21.3126 98.7628L17.8272 96.8002C17.8987 96.6731 18.0053 96.5613 18.1411 96.481L20.1768 99.9242ZM18.595 100.356C19.1536 100.357 19.6993 100.207 20.1768 99.9243L18.1411 96.481C18.2772 96.4005 18.4358 96.3561 18.6003 96.3563L18.595 100.356ZM17.0145 99.9202C17.4913 100.204 18.0366 100.356 18.5951 100.356L18.6002 96.3563C18.7647 96.3565 18.9231 96.4014 19.059 96.4822L17.0145 99.9202ZM2.90276 91.563L17.0176 99.9221L19.0559 96.4803L4.941 88.1213L2.90276 91.563ZM1.76857 90.4032C2.03743 90.8806 2.42805 91.2831 2.90597 91.5649L4.93779 88.1194C5.07454 88.2 5.18182 88.3125 5.25383 88.4403L1.76857 90.4032ZM1.36133 88.8443C1.36063 89.3886 1.49988 89.9262 1.76857 90.4032L5.25383 88.4403C5.32566 88.5679 5.36151 88.7088 5.36133 88.8494L1.36133 88.8443ZM1.36133 33.9509V88.8469H5.36133V33.9509H1.36133ZM1.76783 32.3952C1.49975 32.872 1.36077 33.4092 1.36133 33.953L5.36133 33.9489C5.36147 34.0885 5.3259 34.2286 5.25462 34.3553L1.76783 32.3952ZM2.90276 31.2329C2.42583 31.5154 2.0361 31.918 1.76783 32.3952L5.25462 34.3553C5.18317 34.4824 5.07672 34.5943 4.941 34.6747L2.90276 31.2329ZM18.7012 21.8785L2.90289 31.2329L4.94087 34.6748L20.7392 25.3204L18.7012 21.8785ZM37.4368 47.8146L20.3879 57.9131L22.4264 61.3547L39.4753 51.2562L37.4368 47.8146ZM37.375 47.8507L37.3073 47.8982L39.6048 51.1726L39.6724 51.1252L37.375 47.8507ZM37.1248 48.1269C37.1301 48.1176 37.1361 48.1082 37.1433 48.098L40.4136 50.4013C40.4736 50.316 40.538 50.2167 40.6021 50.1039L37.1248 48.1269ZM37.0166 48.5302C37.0173 48.3915 37.0534 48.2526 37.1249 48.1269L40.6021 50.1039C40.8722 49.6289 41.0139 49.0931 41.0166 48.55L37.0166 48.5302ZM37.0166 32.912V48.5401H41.0166V32.912H37.0166ZM37.1239 33.3209C37.0527 33.1948 37.0169 33.0555 37.0166 32.9165L41.0166 32.9074C41.0154 32.3646 40.8752 31.829 40.6067 31.3536L37.1239 33.3209ZM37.4366 33.6384C37.3014 33.5585 37.1953 33.4473 37.1239 33.3208L40.6067 31.3536C40.338 30.8779 39.9485 30.4767 39.4723 30.1952L37.4366 33.6384ZM37.8937 33.7629C37.73 33.7629 37.5722 33.7185 37.4366 33.6384L39.4724 30.1952C38.9958 29.9134 38.4513 29.7629 37.894 29.7629L37.8937 33.7629ZM38.3507 33.6385C38.2151 33.7186 38.0573 33.7629 37.8937 33.7629L37.894 29.7629C37.3368 29.7628 36.7923 29.9132 36.3156 30.1949L38.3507 33.6385ZM21.3053 43.7342L38.3524 33.6375L36.314 30.1958L19.2668 40.2925L21.3053 43.7342ZM21.6188 43.4149C21.5473 43.542 21.4409 43.6539 21.3052 43.7342L19.2669 40.2925C18.79 40.5749 18.4003 40.9775 18.132 41.4547L21.6188 43.4149ZM21.7255 43.0084C21.7256 43.1481 21.6901 43.2881 21.6188 43.4149L18.132 41.4547C17.8639 41.9316 17.7249 42.4687 17.7255 43.0125L21.7255 43.0084ZM21.7255 58.6368V43.0105H17.7255V58.6368H21.7255ZM21.6189 58.2326C21.6901 58.3593 21.7256 58.4993 21.7255 58.6389L17.7255 58.6347C17.7249 59.1783 17.8638 59.7152 18.1316 60.1918L21.6189 58.2326ZM21.3056 57.9133C21.4412 57.9937 21.5475 58.1056 21.6189 58.2326L18.1316 60.1918C18.3996 60.6688 18.7889 61.0714 19.2655 61.3539L21.3056 57.9133ZM20.8469 57.788C21.0112 57.788 21.1696 57.8326 21.3056 57.9133L19.2655 61.3539C19.7424 61.6367 20.2876 61.7878 20.8458 61.788L20.8469 57.788ZM20.388 57.9131C20.5241 57.8325 20.6825 57.7879 20.8469 57.788L20.8458 61.788C21.4039 61.7881 21.9492 61.6374 22.4263 61.3548L20.388 57.9131ZM107.007 21.6712L88.5053 10.7121L86.4668 14.1536L104.968 25.1128L107.007 21.6712ZM123.82 31.6258L107.007 21.6711L104.969 25.113L121.782 35.0678L123.82 31.6258ZM124.953 32.7863C124.686 32.3112 124.298 31.91 123.823 31.6278L121.778 35.0658C121.644 34.9859 121.539 34.875 121.468 34.7491L124.953 32.7863ZM125.361 34.3376C125.36 33.7958 125.221 33.2611 124.953 32.7863L121.468 34.7492C121.397 34.6237 121.362 34.4851 121.361 34.3466L125.361 34.3376ZM125.361 89.0761V34.3421H121.361V89.0761H125.361ZM124.963 90.615C125.224 90.1438 125.361 89.6146 125.361 89.0788L121.361 89.0734C121.361 88.9361 121.396 88.7986 121.466 88.6738L124.963 90.615ZM123.855 91.7712C124.321 91.4866 124.701 91.0867 124.963 90.6151L121.466 88.6737C121.535 88.5486 121.638 88.4379 121.771 88.3573L123.855 91.7712ZM122.304 92.2256C122.854 92.2139 123.389 92.0559 123.855 91.7712L121.77 88.3573C121.903 88.2764 122.058 88.2299 122.219 88.2265L122.304 92.2256ZM120.735 91.8369C121.213 92.1021 121.754 92.2373 122.304 92.2256L122.219 88.2265C122.381 88.2231 122.538 88.263 122.674 88.3386L120.735 91.8369ZM104.962 82.5018L120.686 91.8089L122.723 88.3667L106.999 79.0596L104.962 82.5018ZM88.1415 72.5414L104.962 82.5017L107 79.0598L90.1797 69.0996L88.1415 72.5414ZM88.6003 72.6664C88.436 72.6665 88.2775 72.6219 88.1415 72.5414L90.1797 69.0996C89.7026 68.8171 89.1573 68.6663 88.5992 68.6664L88.6003 72.6664ZM89.059 72.5411C88.923 72.6218 88.7646 72.6664 88.6003 72.6664L88.5992 68.6664C88.0411 68.6666 87.4959 68.8177 87.0189 69.1005L89.059 72.5411ZM89.3723 72.2219C89.301 72.3489 89.1946 72.4607 89.059 72.5411L87.0189 69.1005C86.5424 69.383 86.1531 69.7856 85.8851 70.2626L89.3723 72.2219ZM89.4789 71.8155C89.4791 71.9552 89.4435 72.0951 89.3724 72.2218L85.885 70.2626C85.6173 70.7393 85.4784 71.2761 85.479 71.8197L89.4789 71.8155ZM89.479 109.708V71.8176H85.479V109.708H89.479ZM89.0975 111.223C89.3509 110.754 89.4811 110.23 89.4789 109.7L85.479 109.716C85.4784 109.58 85.5117 109.444 85.5787 109.32L89.0975 111.223ZM88.0183 112.381C88.4739 112.092 88.8439 111.692 89.0974 111.223L85.5787 109.32C85.646 109.196 85.7464 109.085 85.8753 109.004L88.0183 112.381ZM70.8424 123.064L88.0031 112.391L85.8905 108.994L68.7298 119.668L70.8424 123.064ZM69.2558 123.532C69.8198 123.523 70.3679 123.36 70.8434 123.064L68.7288 119.668C68.8641 119.584 69.0232 119.536 69.1892 119.533L69.2558 123.532ZM67.653 123.116C68.1383 123.397 68.6917 123.542 69.2558 123.532L69.1891 119.533C69.3553 119.53 69.5162 119.573 69.6548 119.653L67.653 123.116ZM66.4976 121.951C66.771 122.432 67.168 122.836 67.6529 123.116L69.6548 119.653C69.793 119.733 69.9015 119.845 69.9744 119.974L66.4976 121.951ZM66.0832 120.379C66.0825 120.928 66.2243 121.471 66.4976 121.951L69.9744 119.974C70.0471 120.101 70.0834 120.243 70.0832 120.384L66.0832 120.379ZM66.0832 2.93114V120.382H70.0832V2.93114H66.0832ZM66.4929 1.3733C66.2244 1.84868 66.0843 2.38434 66.0832 2.92705L70.0832 2.93522C70.0829 3.07462 70.047 3.21429 69.9756 3.3407L66.4929 1.3733ZM67.6275 0.215107C67.1512 0.496481 66.7616 0.897601 66.4929 1.37325L69.9756 3.34076C69.904 3.46745 69.7976 3.57892 69.6621 3.659L67.6275 0.215107ZM69.206 -0.216406C68.6487 -0.216707 68.1042 -0.0665232 67.6275 0.215107L69.6621 3.659C69.5261 3.73934 69.3679 3.78368 69.2038 3.78359L69.206 -0.216406ZM70.784 0.216788C70.3076 -0.0653176 69.7632 -0.216105 69.206 -0.216406L69.2038 3.78359C69.0397 3.7835 68.8816 3.73898 68.7457 3.65853L70.784 0.216788ZM88.5052 10.712L70.784 0.21681L68.7457 3.65851L86.4669 14.1537L88.5052 10.712ZM105.325 58.3989L89.0659 48.768L87.0273 52.2096L103.287 61.8405L105.325 58.3989ZM104.866 58.2738C105.031 58.2737 105.189 58.3183 105.325 58.3988L103.287 61.8406C103.764 62.1231 104.309 62.2739 104.868 62.2738L104.866 58.2738ZM104.408 58.3991C104.544 58.3185 104.702 58.2738 104.866 58.2738L104.868 62.2738C105.426 62.2736 105.971 62.1225 106.448 61.8397L104.408 58.3991ZM104.094 58.7184C104.166 58.5913 104.272 58.4795 104.408 58.3991L106.448 61.8397C106.924 61.5572 107.314 61.1547 107.582 60.6776L104.094 58.7184ZM103.988 59.1246C103.988 58.9851 104.023 58.8451 104.094 58.7184L107.582 60.6776C107.85 60.2009 107.988 59.664 107.988 59.1206L103.988 59.1246ZM103.988 43.7201V59.1226H107.988V43.7201H103.988ZM104.095 44.1266C104.023 43.9991 103.988 43.8582 103.988 43.7175L107.988 43.7226C107.988 43.1783 107.849 42.6407 107.581 42.1637L104.095 44.1266ZM104.411 44.4475C104.275 44.3669 104.167 44.2544 104.095 44.1266L107.581 42.1637C107.312 41.6863 106.921 41.2839 106.443 41.002L104.411 44.4475ZM88.1486 34.8166L104.408 44.4456L106.446 41.0039L90.1868 31.3748L88.1486 34.8166ZM88.6074 34.9416C88.4431 34.9417 88.2846 34.8971 88.1486 34.8166L90.1868 31.3748C89.7097 31.0923 89.1644 30.9415 88.6063 30.9416L88.6074 34.9416ZM89.0661 34.8163C88.9301 34.897 88.7717 34.9416 88.6074 34.9416L88.6063 30.9416C88.0482 30.9418 87.503 31.0929 87.026 31.3757L89.0661 34.8163ZM89.3795 34.497C89.3081 34.6241 89.2017 34.7359 89.0661 34.8163L87.026 31.3757C86.5495 31.6582 86.1601 32.0608 85.8921 32.5378L89.3795 34.497ZM89.486 34.0908C89.4862 34.2304 89.4507 34.3703 89.3794 34.497L85.8922 32.5378C85.6243 33.0145 85.4855 33.5513 85.486 34.0949L89.486 34.0908ZM89.486 49.4935V34.0928H85.486V49.4935H89.486ZM89.379 49.0867C89.4503 49.2133 89.486 49.353 89.486 49.4925L85.486 49.4946C85.4863 50.0375 85.6257 50.5736 85.8937 51.0496L89.379 49.0867ZM89.0657 48.7679C89.2012 48.8482 89.3076 48.9598 89.379 49.0867L85.8937 51.0496C86.162 51.5259 86.5513 51.9277 87.0275 52.2097L89.0657 48.7679ZM39.6724 51.1252C39.8349 51.0112 40.148 50.7784 40.4136 50.4013L37.1433 48.098C37.2121 48.0004 37.2781 47.9343 37.3191 47.8971C37.3586 47.8614 37.3838 47.8446 37.375 47.8507L39.6724 51.1252Z" fill="white" mask="url(#path-1-inside-1_1079_1968)"/>
</g>
<defs>
<filter id="filter0_d_1079_1968" x="0.361328" y="0.664062" width="126" height="126" filterUnits="userSpaceOnUse" color-interpolation-filters="sRGB">
<feFlood flood-opacity="0" result="BackgroundImageFix"/>
<feColorMatrix in="SourceAlpha" type="matrix" values="0 0 0 0 0 0 0 0 0 0 0 0 0 0 0 0 0 0 127 0" result="hardAlpha"/>
<feOffset dy="2"/>
<feGaussianBlur stdDeviation="1.5"/>
<feComposite in2="hardAlpha" operator="out"/>
<feColorMatrix type="matrix" values="0 0 0 0 0 0 0 0 0 0 0 0 0 0 0 0 0 0 0.25 0"/>
<feBlend mode="normal" in2="BackgroundImageFix" result="effect1_dropShadow_1079_1968"/>
<feBlend mode="normal" in="SourceGraphic" in2="effect1_dropShadow_1079_1968" result="shape"/>
</filter>
</defs>
</svg>
