<svg width="64" height="64" viewBox="0 0 64 64" fill="none" xmlns="http://www.w3.org/2000/svg">
<rect width="64" height="64" rx="16" fill="#F6F6F6"/>
<path fill-rule="evenodd" clip-rule="evenodd" d="M17.453 19.3117L23.8851 15.5034L29.7153 12.05C29.7721 12.0169 29.8362 11.9997 29.9015 12C29.9667 12.0003 30.0307 12.0181 30.0872 12.0517C30.1436 12.0852 30.1905 12.1333 30.2232 12.1912C30.2559 12.2491 30.2732 12.3148 30.2735 12.3817V51.6164C30.2735 51.6844 30.2558 51.7512 30.2224 51.8098C30.1889 51.8685 30.1408 51.917 30.083 51.9504C30.0252 51.9837 29.9599 52.0007 29.8936 51.9995C29.8273 51.9984 29.7625 51.9792 29.7059 51.9439L24.0607 48.4304C24.0063 48.3958 23.9614 48.3475 23.9303 48.2901C23.8992 48.2326 23.8831 48.168 23.8833 48.1023V34.759C23.8832 34.6917 23.8658 34.6256 23.8329 34.5674C23.8 34.5092 23.7528 34.4609 23.696 34.4273C23.6391 34.3937 23.5747 34.376 23.5091 34.376C23.4435 34.376 23.379 34.3936 23.3222 34.4272L17.6398 37.7928C17.5829 37.8265 17.5357 37.8749 17.5029 37.9333C17.4701 37.9916 17.4529 38.0578 17.453 38.1251V43.847C17.453 43.9143 17.4357 43.9805 17.4029 44.0388C17.37 44.0972 17.3228 44.1456 17.2659 44.1792C17.209 44.2129 17.1445 44.2305 17.0788 44.2304C17.0131 44.2304 16.9486 44.2125 16.8918 44.1787L12.1869 41.3924C12.13 41.3589 12.0828 41.3106 12.05 41.2523C12.0171 41.194 11.9999 41.1279 12 41.0607V22.7622C11.9999 22.6948 12.0172 22.6286 12.05 22.5703C12.0828 22.5119 12.13 22.4635 12.1869 22.4298L17.453 19.3117ZM18.0153 31.3231L23.6983 27.957H23.6965C23.7535 27.9235 23.801 27.8752 23.8341 27.817C23.8672 27.7587 23.8848 27.6926 23.8851 27.6252V22.4159C23.885 22.3486 23.8676 22.2825 23.8347 22.2243C23.8018 22.1661 23.7546 22.1177 23.6977 22.0841C23.6409 22.0505 23.5765 22.0329 23.5109 22.0328C23.4453 22.0328 23.3808 22.0505 23.324 22.0841L17.6416 25.4496C17.5847 25.4833 17.5375 25.5318 17.5047 25.5901C17.4719 25.6485 17.4547 25.7147 17.4547 25.782V30.9907C17.4547 31.0581 17.4719 31.1242 17.5047 31.1825C17.5374 31.2409 17.5846 31.2893 17.6414 31.323C17.6982 31.3567 17.7627 31.3744 17.8283 31.3745C17.894 31.3745 17.9584 31.3568 18.0153 31.3231ZM40.0416 15.5914L46.2088 19.2444L51.8132 22.5626C51.8699 22.5964 51.9169 22.6447 51.9497 22.7029C51.9825 22.7612 51.9998 22.8272 52 22.8944V41.1389C51.9999 41.2053 51.983 41.2706 51.951 41.3283C51.9189 41.3861 51.8728 41.4343 51.8172 41.4683C51.7615 41.5022 51.6982 41.5208 51.6335 41.5222C51.5687 41.5236 51.5047 41.5077 51.4477 41.4761L46.2065 38.3738L40.5998 35.0538C40.5429 35.0201 40.4784 35.0024 40.4128 35.0024C40.3472 35.0024 40.2827 35.0202 40.2259 35.0539C40.1691 35.0875 40.1219 35.136 40.0891 35.1943C40.0563 35.2526 40.0391 35.3188 40.0392 35.3861V48.0161C40.0395 48.0818 40.0233 48.1465 39.9922 48.2039C39.9612 48.2614 39.9163 48.3097 39.8618 48.3442L34.1416 51.9021C34.0849 51.9374 34.02 51.9566 33.9537 51.9577C33.8874 51.9588 33.822 51.9417 33.7642 51.9083C33.7064 51.8749 33.6583 51.8264 33.6249 51.7676C33.5914 51.7088 33.5739 51.642 33.5739 51.5739V12.4242C33.5741 12.357 33.5914 12.291 33.6243 12.2328C33.6572 12.1746 33.7043 12.1264 33.7611 12.0928C33.8179 12.0593 33.8823 12.0416 33.9478 12.0417C34.0134 12.0417 34.0777 12.0594 34.1345 12.093L40.0416 15.5914ZM40.2284 28.2766L45.6483 31.4869C45.7051 31.5205 45.7696 31.5382 45.8352 31.5382C45.9008 31.5382 45.9653 31.5204 46.0221 31.4868C46.079 31.4531 46.1261 31.4046 46.1589 31.3463C46.1917 31.288 46.2089 31.2218 46.2088 31.1545V26.0204C46.2089 25.9531 46.1917 25.887 46.1589 25.8287C46.126 25.7705 46.0788 25.7221 46.022 25.6886L40.6021 22.4789C40.5453 22.4453 40.4808 22.4276 40.4152 22.4276C40.3495 22.4276 40.2851 22.4453 40.2282 22.479C40.1714 22.5127 40.1243 22.5612 40.0915 22.6195C40.0587 22.6778 40.0415 22.744 40.0416 22.8113V27.9448C40.0416 28.0121 40.0589 28.0781 40.0917 28.1364C40.1245 28.1946 40.1716 28.243 40.2284 28.2766Z" fill="#222222"/>
</svg>
