<svg width="40" height="41" viewBox="0 0 40 41" fill="none" xmlns="http://www.w3.org/2000/svg">
<g id="ap_logo">
<path id="AP Favicon" fill-rule="evenodd" clip-rule="evenodd" d="M9.08969 10.6599L13.9138 7.80372L18.2864 5.21363C18.3289 5.18885 18.3771 5.17593 18.426 5.17615C18.4749 5.17638 18.5229 5.18973 18.5653 5.21489C18.6076 5.24005 18.6428 5.27614 18.6673 5.31957C18.6918 5.363 18.7048 5.41226 18.705 5.46245V34.8882C18.705 34.9392 18.6918 34.9893 18.6667 35.0333C18.6416 35.0773 18.6055 35.1137 18.5622 35.1387C18.5188 35.1637 18.4698 35.1764 18.4201 35.1756C18.3704 35.1747 18.3218 35.1603 18.2793 35.1339L14.0455 32.4988C14.0046 32.4728 13.971 32.4366 13.9477 32.3935C13.9244 32.3504 13.9122 32.3019 13.9124 32.2527V22.2453C13.9123 22.1948 13.8993 22.1453 13.8746 22.1016C13.85 22.0579 13.8145 22.0217 13.7719 21.9965C13.7293 21.9713 13.6809 21.958 13.6318 21.958C13.5826 21.958 13.5342 21.9713 13.4916 21.9965L9.22983 24.5206C9.18718 24.5459 9.15177 24.5822 9.12717 24.626C9.10257 24.6697 9.08964 24.7194 9.08969 24.7699V29.0612C9.08971 29.1117 9.07675 29.1614 9.05212 29.2051C9.02749 29.2489 8.99205 29.2852 8.94938 29.3104C8.90671 29.3356 8.85831 29.3489 8.80906 29.3488C8.75981 29.3488 8.71145 29.3354 8.66884 29.31L5.14014 27.2203C5.09749 27.1952 5.06207 27.1589 5.03747 27.1152C5.01286 27.0715 4.99994 27.0219 5 26.9715V13.2477C4.99995 13.1972 5.01287 13.1476 5.03748 13.1038C5.06208 13.0601 5.09749 13.0237 5.14014 12.9985L9.08969 10.6599ZM9.51143 19.6684L13.7736 17.1438H13.7723C13.8151 17.1187 13.8507 17.0825 13.8755 17.0388C13.9003 16.9951 13.9135 16.9455 13.9138 16.895V12.988C13.9137 12.9375 13.9006 12.888 13.8759 12.8443C13.8513 12.8007 13.8159 12.7644 13.7732 12.7392C13.7306 12.714 13.6823 12.7007 13.6331 12.7007C13.5839 12.7007 13.5355 12.714 13.4929 12.7392L9.23116 15.2633C9.18851 15.2886 9.1531 15.3249 9.1285 15.3687C9.1039 15.4124 9.09097 15.4621 9.09102 15.5126V19.4191C9.09097 19.4696 9.10388 19.5192 9.12846 19.563C9.15304 19.6067 9.18841 19.643 9.23103 19.6683C9.27365 19.6936 9.322 19.7069 9.37122 19.7069C9.42044 19.7069 9.4688 19.6936 9.51143 19.6684ZM26.0309 7.8693L30.6563 10.6091L34.8595 13.0977C34.902 13.123 34.9373 13.1593 34.9619 13.2029C34.9865 13.2466 34.9995 13.2961 34.9996 13.3465V27.0298C34.9996 27.0796 34.9869 27.1286 34.9629 27.1719C34.9388 27.2152 34.9042 27.2513 34.8625 27.2768C34.8208 27.3023 34.7733 27.3163 34.7247 27.3173C34.6762 27.3183 34.6282 27.3064 34.5854 27.2827L30.6545 24.956L26.4495 22.466C26.4069 22.4407 26.3585 22.4274 26.3093 22.4275C26.2601 22.4275 26.2117 22.4408 26.1691 22.4661C26.1265 22.4913 26.0911 22.5277 26.0665 22.5714C26.042 22.6151 26.029 22.6648 26.0291 22.7153V32.1877C26.0293 32.237 26.0172 32.2855 25.9939 32.3285C25.9706 32.3716 25.9369 32.4079 25.896 32.4338L21.6059 35.1021C21.5634 35.1286 21.5147 35.143 21.465 35.1438C21.4153 35.1447 21.3662 35.1319 21.3228 35.1068C21.2795 35.0818 21.2434 35.0453 21.2184 35.0013C21.1933 34.9572 21.1801 34.9071 21.1802 34.856V5.49392C21.1803 5.4435 21.1933 5.394 21.2179 5.35039C21.2426 5.30677 21.278 5.27056 21.3206 5.2454C21.3632 5.22024 21.4114 5.20701 21.4606 5.20704C21.5097 5.20706 21.558 5.22034 21.6006 5.24555L26.0309 7.8693ZM26.171 17.3831L30.2359 19.7908C30.2785 19.8161 30.3268 19.8294 30.3761 19.8293C30.4253 19.8293 30.4736 19.816 30.5163 19.7907C30.5589 19.7655 30.5943 19.7291 30.6188 19.6854C30.6434 19.6417 30.6563 19.592 30.6563 19.5415V15.691C30.6563 15.6405 30.6434 15.5909 30.6188 15.5473C30.5942 15.5036 30.5588 15.4673 30.5161 15.4422L26.4513 13.0349C26.4086 13.0097 26.3603 12.9964 26.3111 12.9964C26.2618 12.9964 26.2135 13.0097 26.1709 13.035C26.1283 13.0603 26.0929 13.0966 26.0683 13.1404C26.0437 13.1841 26.0308 13.2337 26.0309 13.2842V17.1343C26.0309 17.1848 26.0439 17.2343 26.0685 17.278C26.093 17.3217 26.1284 17.3579 26.171 17.3831Z" fill="#222222"/>
</g>
</svg>
