<svg width="18" height="19" viewBox="0 0 18 19" fill="none" xmlns="http://www.w3.org/2000/svg">
<path d="M14.0628 5.38507V12.6976C14.0628 12.8468 14.0036 12.9898 13.8981 13.0953C13.7926 13.2008 13.6495 13.2601 13.5003 13.2601C13.3511 13.2601 13.2081 13.2008 13.1026 13.0953C12.9971 12.9898 12.9378 12.8468 12.9378 12.6976V6.74281L4.89828 14.783C4.79273 14.8886 4.64958 14.9479 4.50031 14.9479C4.35105 14.9479 4.20789 14.8886 4.10234 14.783C3.9968 14.6775 3.9375 14.5343 3.9375 14.3851C3.9375 14.2358 3.9968 14.0926 4.10234 13.9871L12.1426 5.94757H6.18781C6.03863 5.94757 5.89555 5.88831 5.79007 5.78282C5.68458 5.67733 5.62531 5.53426 5.62531 5.38507C5.62531 5.23589 5.68458 5.09281 5.79007 4.98732C5.89555 4.88183 6.03863 4.82257 6.18781 4.82257H13.5003C13.6495 4.82257 13.7926 4.88183 13.8981 4.98732C14.0036 5.09281 14.0628 5.23589 14.0628 5.38507Z" fill="#222222"/>
</svg>
