<svg width="32" height="33" viewBox="0 0 32 33" fill="none" xmlns="http://www.w3.org/2000/svg">
<path fill-rule="evenodd" clip-rule="evenodd" d="M16 0.179527C7.16344 0.179527 0 7.34297 0 16.1795C0 25.0161 7.16344 32.1795 16 32.1795C24.8366 32.1795 32 25.0161 32 16.1795C32 7.34297 24.8366 0.179527 16 0.179527ZM16.0003 16.0406L6.40439 11.2426C6.47675 9.98209 7.52181 8.98226 8.80039 8.98226H23.2004C24.4789 8.98226 25.524 9.98205 25.5964 11.2425L16.0003 16.0406ZM16.0003 18.7239L25.6004 13.9238V20.9824C25.6004 22.3079 24.5259 23.3824 23.2004 23.3824H8.80039C7.47491 23.3824 6.40039 22.3079 6.40039 20.9824V13.9239L16.0003 18.7239Z" fill="#222222"/>
</svg>
