<svg width="33" height="32" viewBox="0 0 33 32" fill="none" xmlns="http://www.w3.org/2000/svg">
<g clip-path="url(#clip0_4220_15240)">
<path d="M7.44653 12.7075C8.81418 12.7075 10.1511 13.113 11.2883 13.8728C12.4254 14.6327 13.3117 15.7126 13.8351 16.9762C14.3585 18.2397 14.4954 19.63 14.2286 20.9714C13.9618 22.3128 13.3032 23.5449 12.3361 24.512C11.3691 25.479 10.1369 26.1376 8.79557 26.4044C7.4542 26.6712 6.06384 26.5343 4.80031 26.0109C3.53677 25.4876 2.45681 24.6013 1.69699 23.4641C0.937164 22.327 0.531611 20.99 0.531611 19.6224L0.5 18.6345C0.5 14.9666 1.95707 11.449 4.55067 8.85535C7.14427 6.26176 10.6619 4.80469 14.3298 4.80469V8.75607C13.032 8.75258 11.7464 9.00641 10.5473 9.50288C9.34813 9.99935 8.25933 10.7286 7.3438 11.6485C6.98796 12.0036 6.65971 12.3854 6.36188 12.7904C6.71553 12.7351 7.07708 12.7055 7.44456 12.7055L7.44653 12.7075ZM25.2278 12.7075C26.5954 12.7075 27.9323 13.113 29.0695 13.8728C30.2066 14.6327 31.0929 15.7126 31.6163 16.9762C32.1397 18.2397 32.2766 19.63 32.0098 20.9714C31.743 22.3128 31.0844 23.5449 30.1173 24.512C29.1503 25.479 27.9182 26.1376 26.5768 26.4044C25.2354 26.6712 23.8451 26.5343 22.5815 26.0109C21.318 25.4876 20.238 24.6013 19.4782 23.4641C18.7184 22.327 18.3128 20.99 18.3128 19.6224L18.2812 18.6345C18.2812 14.9666 19.7383 11.449 22.3319 8.85535C24.9255 6.26176 28.4432 4.80469 32.1111 4.80469V8.75607C30.8132 8.75258 29.5276 9.00641 28.3285 9.50288C27.1294 9.99935 26.0406 10.7286 25.125 11.6485C24.7692 12.0036 24.4409 12.3854 24.1431 12.7904C24.4968 12.7351 24.8583 12.7055 25.2278 12.7055V12.7075Z" fill="#222222"/>
</g>
<defs>
<clipPath id="clip0_4220_15240">
<rect width="31.6111" height="31.6111" fill="white" transform="translate(0.5 0.195312)"/>
</clipPath>
</defs>
</svg>
