<svg width="16" height="17" viewBox="0 0 16 17" fill="none" xmlns="http://www.w3.org/2000/svg">
<path d="M7.24168 3.64263C7.48116 2.90558 8.52389 2.90558 8.76337 3.64263L9.61903 6.27607C9.72613 6.60569 10.0333 6.82885 10.3799 6.82885H13.1488C13.9238 6.82885 14.246 7.82055 13.6191 8.27607L11.3789 9.90362C11.0985 10.1073 10.9812 10.4684 11.0883 10.798L11.944 13.4315C12.1834 14.1685 11.3399 14.7814 10.7129 14.3259L8.47275 12.6984C8.19237 12.4946 7.81269 12.4946 7.5323 12.6984L5.29216 14.3259C4.66519 14.7814 3.82161 14.1685 4.06109 13.4315L4.91675 10.798C5.02384 10.4684 4.90652 10.1073 4.62613 9.90362L2.38599 8.27607C1.75902 7.82055 2.08124 6.82885 2.85622 6.82885H5.62518C5.97176 6.82885 6.27893 6.60569 6.38603 6.27607L7.24168 3.64263Z" fill="#222222"/>
</svg>
