<svg width="32" height="32" viewBox="0 0 32 32" fill="none" xmlns="http://www.w3.org/2000/svg">
<path d="M17.5992 4.79922C17.5992 4.37487 17.4306 3.96791 17.1306 3.66785C16.8305 3.36779 16.4236 3.19922 15.9992 3.19922C15.5749 3.19922 15.1679 3.36779 14.8678 3.66785C14.5678 3.96791 14.3992 4.37487 14.3992 4.79922V6.39922C14.3992 6.82357 14.5678 7.23053 14.8678 7.53059C15.1679 7.83065 15.5749 7.99922 15.9992 7.99922C16.4236 7.99922 16.8305 7.83065 17.1306 7.53059C17.4306 7.23053 17.5992 6.82357 17.5992 6.39922V4.79922ZM25.0504 9.21042C25.3419 8.90866 25.5031 8.50449 25.4995 8.08498C25.4959 7.66546 25.3276 7.26416 25.0309 6.96751C24.7343 6.67086 24.333 6.50259 23.9135 6.49894C23.4939 6.49529 23.0898 6.65657 22.788 6.94802L21.6568 8.07922C21.3654 8.38098 21.2041 8.78515 21.2077 9.20466C21.2114 9.62418 21.3797 10.0255 21.6763 10.3221C21.973 10.6188 22.3743 10.7871 22.7938 10.7907C23.2133 10.7943 23.6175 10.6331 23.9192 10.3416L25.0504 9.21042ZM28.7992 15.9992C28.7992 16.4236 28.6306 16.8305 28.3306 17.1306C28.0305 17.4306 27.6236 17.5992 27.1992 17.5992H25.5992C25.1749 17.5992 24.7679 17.4306 24.4678 17.1306C24.1678 16.8305 23.9992 16.4236 23.9992 15.9992C23.9992 15.5749 24.1678 15.1679 24.4678 14.8678C24.7679 14.5678 25.1749 14.3992 25.5992 14.3992H27.1992C27.6236 14.3992 28.0305 14.5678 28.3306 14.8678C28.6306 15.1679 28.7992 15.5749 28.7992 15.9992ZM8.07922 10.3416C8.22681 10.4944 8.40337 10.6163 8.59857 10.7002C8.79378 10.784 9.00373 10.8282 9.21618 10.83C9.42862 10.8319 9.63931 10.7914 9.83595 10.7109C10.0326 10.6305 10.2112 10.5117 10.3615 10.3615C10.5117 10.2112 10.6305 10.0326 10.7109 9.83595C10.7914 9.63931 10.8319 9.42862 10.83 9.21618C10.8282 9.00373 10.784 8.79378 10.7002 8.59857C10.6163 8.40337 10.4944 8.22681 10.3416 8.07922L9.21042 6.94802C8.90866 6.65657 8.50449 6.49529 8.08498 6.49894C7.66546 6.50259 7.26416 6.67086 6.96751 6.96751C6.67086 7.26416 6.50259 7.66546 6.49894 8.08498C6.49529 8.50449 6.65657 8.90866 6.94802 9.21042L8.07922 10.3416ZM7.99922 15.9992C7.99922 16.4236 7.83065 16.8305 7.53059 17.1306C7.23053 17.4306 6.82357 17.5992 6.39922 17.5992H4.79922C4.37487 17.5992 3.96791 17.4306 3.66785 17.1306C3.36779 16.8305 3.19922 16.4236 3.19922 15.9992C3.19922 15.5749 3.36779 15.1679 3.66785 14.8678C3.96791 14.5678 4.37487 14.3992 4.79922 14.3992H6.39922C6.82357 14.3992 7.23053 14.5678 7.53059 14.8678C7.83065 15.1679 7.99922 15.5749 7.99922 15.9992ZM12.7992 25.5992V23.9992H19.1992V25.5992C19.1992 26.4479 18.8621 27.2618 18.262 27.862C17.6618 28.4621 16.8479 28.7992 15.9992 28.7992C15.1505 28.7992 14.3366 28.4621 13.7365 27.862C13.1364 27.2618 12.7992 26.4479 12.7992 25.5992ZM19.1992 22.3992C19.2232 21.8552 19.532 21.3656 19.9624 21.0248C21.0067 20.2012 21.7685 19.0728 22.1418 17.7963C22.5152 16.5198 22.4816 15.1587 22.0458 13.9021C21.6099 12.6456 20.7934 11.5561 19.7098 10.785C18.6261 10.0139 17.3292 9.59958 15.9992 9.59958C14.6692 9.59958 13.3723 10.0139 12.2887 10.785C11.205 11.5561 10.3885 12.6456 9.95267 13.9021C9.5168 15.1587 9.48322 16.5198 9.85659 17.7963C10.23 19.0728 10.9917 20.2012 12.036 21.0248C12.468 21.3656 12.7752 21.8552 12.7976 22.3992H19.2008H19.1992Z" fill="#EAAD11"/>
</svg>
