<svg width="32" height="33" viewBox="0 0 32 33" fill="none" xmlns="http://www.w3.org/2000/svg">
<path fill-rule="evenodd" clip-rule="evenodd" d="M0 16.1795C0 7.34297 7.16344 0.179527 16 0.179527C24.8366 0.179527 32 7.34297 32 16.1795C32 25.0161 24.8366 32.1795 16 32.1795C7.16344 32.1795 0 25.0161 0 16.1795ZM8.2 13.4795V24.1795H11.6V13.4795H8.2ZM8 10.0795C8 11.1795 8.8 11.9795 9.9 11.9795C11 11.9795 11.8 11.1795 11.8 10.0795C11.8 8.97953 11 8.17953 9.9 8.17953C8.9 8.17953 8 8.97953 8 10.0795ZM20.6 24.1795H23.8V17.5795C23.8 14.2795 21.8 13.1795 19.9 13.1795C18.2 13.1795 17 14.2795 16.7 14.9795V13.4795H13.5V24.1795H16.9V18.4795C16.9 16.9795 17.9 16.1795 18.9 16.1795C19.9 16.1795 20.6 16.6795 20.6 18.3795V24.1795Z" fill="#222222"/>
</svg>
