<svg width="48" height="48" viewBox="0 0 48 48" fill="none" xmlns="http://www.w3.org/2000/svg">
<path d="M7.72123 10.6659L7.72125 10.6659L14.1533 6.85767L14.1534 6.85759L19.9835 3.40419L19.9883 3.40133L19.9883 3.40135C20.1599 3.30146 20.3554 3.24862 20.5553 3.24952C20.7551 3.25043 20.9501 3.30505 21.1208 3.40645C21.2912 3.50776 21.4305 3.65168 21.5267 3.82204C21.6228 3.99228 21.6731 4.18397 21.6739 4.37822L21.6739 4.38124L21.6739 43.6159V43.6162C21.6738 43.8135 21.6227 44.0084 21.5242 44.181C21.4257 44.3537 21.2828 44.4988 21.1082 44.5995C20.9335 44.7003 20.7343 44.7524 20.5312 44.7489C20.3281 44.7455 20.1308 44.6866 19.9598 44.5801L14.3148 41.0666L14.3093 41.0632C14.1452 40.9591 14.0121 40.815 13.9209 40.6463C13.8301 40.4783 13.7833 40.2906 13.7837 40.1008M7.72123 10.6659L7.16004 36.8236C7.33147 36.9253 7.52747 36.9797 7.7282 36.98C7.92942 36.9802 8.126 36.926 8.29797 36.8243C8.46978 36.7228 8.61015 36.5779 8.70678 36.4063C8.80329 36.2349 8.85338 36.0419 8.85335 35.8465C8.85335 35.8464 8.85335 35.8463 8.85335 35.8462V30.3304L13.7837 27.4103V40.1008M7.72123 10.6659L2.45512 13.784L2.45508 13.784M7.72123 10.6659L2.45508 13.784M13.7837 40.1008C13.7837 40.1001 13.7837 40.0994 13.7837 40.0987L14.5337 40.1018H13.7837V40.1008ZM2.45508 13.784C2.28333 13.8857 2.14309 14.0306 2.04659 14.2023M2.45508 13.784L2.04659 14.2023M2.04659 14.2023C1.95028 14.3736 1.90032 14.5664 1.90039 14.7617M2.04659 14.2023L1.90039 14.7617M1.90039 14.7617C1.90039 14.7618 1.90039 14.7619 1.90039 14.762M1.90039 14.7617V14.762M1.90039 14.762V33.0599V14.762ZM2.45627 34.038L7.15885 36.8229L1.90039 33.0602C1.90031 33.2555 1.95036 33.4485 2.04686 33.6199C2.14347 33.7914 2.28384 33.9361 2.45567 34.0376C2.45587 34.0377 2.45607 34.0379 2.45627 34.038ZM8.85335 30.1239C8.85335 30.1241 8.85335 30.1244 8.85335 30.1247L8.85335 30.1239ZM8.67295 30.4373C8.67275 30.4374 8.67256 30.4375 8.67237 30.4376L8.6724 30.4376L8.67295 30.4373ZM13.7855 15.0672V19.4164L11.5885 20.7065H11.6108L8.85512 22.3387V17.9873L13.7855 15.0672Z" stroke="#222222" stroke-width="1.5"/>
<path d="M33.7736 6.9459L33.7737 6.94593L39.9408 10.5989L39.9409 10.5989L45.5452 13.9171L45.5464 13.9178C45.7173 14.0195 45.8569 14.1638 45.9531 14.3347C46.0493 14.5055 46.0994 14.6978 46.0999 14.8925L46.0999 14.8942L46.0999 33.1387V33.1397C46.0996 33.3324 46.0507 33.5227 45.9566 33.6922C45.8624 33.8618 45.7257 34.0058 45.5579 34.1082C45.39 34.2107 45.1975 34.2677 44.9993 34.2719C44.8011 34.2761 44.6062 34.2274 44.4339 34.1319L44.4247 34.1267L44.4156 34.1214L39.1743 31.0191L39.1742 31.019L34.1391 28.0374V40.015L33.7736 6.9459ZM33.7736 6.9459L27.8666 3.44754L27.8665 3.44753M33.7736 6.9459L27.8665 3.44753M27.8665 3.44753C27.695 3.34594 27.4989 3.29161 27.2981 3.2915C27.0974 3.2914 26.9012 3.34551 26.7295 3.44692C26.558 3.54824 26.4178 3.69263 26.3212 3.86374C26.2246 4.03474 26.1742 4.22737 26.1738 4.42248H26.1738M27.8665 3.44753L26.1738 4.42248M26.1738 4.42248V4.42401M26.1738 4.42248V4.42401M26.1738 4.42401V43.5734V4.42401ZM34.1391 27.3852C34.1391 27.3854 34.1391 27.3857 34.1391 27.386L34.1391 27.3852ZM38.8087 22.5028L34.1415 19.7383V15.4626L38.8087 18.2266V22.5028ZM33.7597 27.3743L33.7628 27.3691L33.7597 27.3743Z" stroke="#222222" stroke-width="1.5"/>
</svg>
