<svg width="62" height="49" viewBox="0 0 62 49" fill="none" xmlns="http://www.w3.org/2000/svg">
<g clip-path="url(#clip0_3483_2467)">
<path d="M15.6265 30.8744H21.8498C23.7111 30.8744 23.9909 28.6595 24.0268 27.7655L22.678 1.09229C22.6562 0.720194 22.6542 0.434277 22.6538 0.359375H17.6653C17.3997 0.359487 17.1349 0.388928 16.8758 0.447164C15.738 0.696435 15.2472 1.52358 15.1582 2.69584L15.1671 30.4777C15.1582 30.7161 15.2057 30.8893 15.6265 30.8744Z" fill="#222222"/>
<path d="M15.6165 30.8744H20.3247C21.422 30.4805 22.4546 29.2427 22.4546 27.7656L22.4494 1.02985C22.4494 0.659781 22.4546 0.416557 22.4546 0.359375H17.6129C17.3529 0.359536 17.0937 0.388984 16.8403 0.447161C15.7252 0.697231 15.2451 1.52435 15.1582 2.69658L15.1667 30.4777C15.1582 30.7161 15.2045 30.8893 15.6165 30.8744Z" fill="#222222"/>
<path d="M27.3782 30.8746H33.3473C35.1328 30.8746 35.4024 29.1303 35.4354 28.427L34.1407 7.42648C34.1198 7.13342 34.1181 6.90838 34.1177 6.84961H29.333C29.0789 6.84964 28.8253 6.87268 28.5754 6.91845C27.4842 7.1145 27.0135 7.76625 26.9297 8.68973L26.9349 30.5622C26.9297 30.7502 26.9752 30.8863 27.3782 30.8746Z" fill="#222222"/>
<path d="M27.3698 30.8746H31.8959C32.951 30.5646 33.9439 29.59 33.9439 28.427L33.9387 7.37697C33.9387 7.08591 33.9439 6.89389 33.9439 6.84961H29.2878C29.0386 6.84962 28.7898 6.87267 28.5448 6.91845C27.4744 7.1145 27.0129 7.76625 26.9297 8.68973L26.9357 30.5622C26.9305 30.7502 26.9737 30.8863 27.3698 30.8746Z" fill="#222222"/>
<path d="M38.7856 30.8746H44.7553C46.541 30.8746 46.8106 29.1303 46.8436 28.427L45.5496 7.42648C45.5286 7.13342 45.527 6.90838 45.5266 6.84961H40.7414C40.4873 6.84962 40.2337 6.87266 39.9837 6.91845C38.8924 7.1145 38.4217 7.76625 38.3379 8.68973L38.3447 30.5622C38.3379 30.7502 38.3818 30.8863 38.7856 30.8746Z" fill="#222222"/>
<path d="M38.7755 30.8746H43.2755C44.3246 30.5646 45.3118 29.59 45.3118 28.427L45.3066 7.37697C45.3066 7.08591 45.3118 6.89389 45.3118 6.84961H40.6821C40.4344 6.84964 40.1872 6.87269 39.9438 6.91845C38.8795 7.1145 38.4206 7.76625 38.3379 8.68973L38.3447 30.5622C38.3387 30.7502 38.3816 30.8863 38.7755 30.8746Z" fill="#222222"/>
</g>
<path d="M1.00376 45.5112V37.0458H2.62428L6.22814 43.02H5.3695L8.91289 37.0458H10.5213L10.5455 45.5112H8.7073L8.69521 39.8636H9.03383L6.20395 44.6163H5.32113L2.43079 39.8636H2.84197V45.5112H1.00376ZM15.5169 45.608C14.8235 45.608 14.2067 45.4629 13.6666 45.1726C13.1345 44.8824 12.7112 44.4873 12.3968 43.9875C12.0904 43.4795 11.9372 42.9031 11.9372 42.2581C11.9372 41.605 12.0904 41.0286 12.3968 40.5287C12.7112 40.0208 13.1345 39.6257 13.6666 39.3436C14.2067 39.0533 14.8235 38.9082 15.5169 38.9082C16.2022 38.9082 16.8149 39.0533 17.3551 39.3436C17.8953 39.6257 18.3185 40.0168 18.6249 40.5166C18.9313 41.0165 19.0845 41.597 19.0845 42.2581C19.0845 42.9031 18.9313 43.4795 18.6249 43.9875C18.3185 44.4873 17.8953 44.8824 17.3551 45.1726C16.8149 45.4629 16.2022 45.608 15.5169 45.608ZM15.5169 44.06C15.8313 44.06 16.1135 43.9875 16.3634 43.8423C16.6134 43.6972 16.8109 43.4916 16.956 43.2256C17.1011 42.9514 17.1737 42.629 17.1737 42.2581C17.1737 41.8792 17.1011 41.5567 16.956 41.2906C16.8109 41.0246 16.6134 40.819 16.3634 40.6738C16.1135 40.5287 15.8313 40.4562 15.5169 40.4562C15.2024 40.4562 14.9203 40.5287 14.6703 40.6738C14.4204 40.819 14.2188 41.0246 14.0657 41.2906C13.9205 41.5567 13.848 41.8792 13.848 42.2581C13.848 42.629 13.9205 42.9514 14.0657 43.2256C14.2188 43.4916 14.4204 43.6972 14.6703 43.8423C14.9203 43.9875 15.2024 44.06 15.5169 44.06ZM28.6779 38.9082C29.1939 38.9082 29.6494 39.013 30.0444 39.2226C30.4476 39.4242 30.762 39.7386 30.9877 40.1659C31.2215 40.5852 31.3385 41.1253 31.3385 41.7864V45.5112H29.4519V42.0767C29.4519 41.5526 29.343 41.1656 29.1253 40.9157C28.9077 40.6658 28.6013 40.5408 28.2062 40.5408C27.9321 40.5408 27.6862 40.6053 27.4685 40.7343C27.2509 40.8552 27.0815 41.0407 26.9606 41.2906C26.8397 41.5405 26.7792 41.859 26.7792 42.246V45.5112H24.8926V42.0767C24.8926 41.5526 24.7838 41.1656 24.5661 40.9157C24.3565 40.6658 24.0541 40.5408 23.6591 40.5408C23.385 40.5408 23.1391 40.6053 22.9214 40.7343C22.7037 40.8552 22.5344 41.0407 22.4135 41.2906C22.2925 41.5405 22.2321 41.859 22.2321 42.246V45.5112H20.3455V39.0049H22.1474V40.7827L21.8088 40.2627C22.0345 39.8192 22.353 39.4846 22.7642 39.2589C23.1834 39.0251 23.6591 38.9082 24.1912 38.9082C24.7878 38.9082 25.3078 39.0614 25.7513 39.3677C26.2028 39.666 26.5011 40.1256 26.6462 40.7464L25.981 40.565C26.1987 40.0571 26.5454 39.654 27.0211 39.3557C27.5048 39.0573 28.0571 38.9082 28.6779 38.9082ZM36.3057 45.608C35.5639 45.608 34.9109 45.4629 34.3465 45.1726C33.7902 44.8824 33.3589 44.4873 33.0525 43.9875C32.7461 43.4795 32.593 42.9031 32.593 42.2581C32.593 41.605 32.7421 41.0286 33.0404 40.5287C33.3468 40.0208 33.762 39.6257 34.286 39.3436C34.8101 39.0533 35.4027 38.9082 36.0638 38.9082C36.7007 38.9082 37.2731 39.0453 37.7811 39.3194C38.2971 39.5854 38.7042 39.9724 39.0025 40.4803C39.3008 40.9802 39.45 41.5809 39.45 42.2823C39.45 42.3548 39.4459 42.4395 39.4379 42.5362C39.4298 42.6249 39.4217 42.7096 39.4137 42.7902H34.1288V41.6897H38.422L37.6964 42.0162C37.6964 41.6776 37.6279 41.3833 37.4908 41.1334C37.3538 40.8835 37.1643 40.69 36.9224 40.5529C36.6806 40.4078 36.3984 40.3352 36.0759 40.3352C35.7534 40.3352 35.4672 40.4078 35.2172 40.5529C34.9754 40.69 34.7859 40.8875 34.6489 41.1455C34.5118 41.3954 34.4433 41.6937 34.4433 42.0404V42.3306C34.4433 42.6854 34.5199 42.9998 34.673 43.2739C34.8343 43.54 35.056 43.7456 35.3382 43.8907C35.6284 44.0278 35.967 44.0963 36.354 44.0963C36.7007 44.0963 37.0031 44.0439 37.261 43.9391C37.5271 43.8343 37.769 43.6771 37.9867 43.4674L38.9904 44.5558C38.6921 44.8945 38.3172 45.1565 37.8657 45.3419C37.4142 45.5193 36.8942 45.608 36.3057 45.608ZM44.6605 38.9082C45.1765 38.9082 45.6361 39.013 46.0392 39.2226C46.4504 39.4242 46.7729 39.7386 47.0067 40.1659C47.2405 40.5852 47.3574 41.1253 47.3574 41.7864V45.5112H45.4708V42.0767C45.4708 41.5526 45.3539 41.1656 45.1201 40.9157C44.8944 40.6658 44.5719 40.5408 44.1526 40.5408C43.8543 40.5408 43.5842 40.6053 43.3424 40.7343C43.1086 40.8552 42.9231 41.0447 42.7861 41.3027C42.6571 41.5607 42.5926 41.8912 42.5926 42.2944V45.5112H40.706V39.0049H42.5079V40.8069L42.1693 40.2627C42.4031 39.8273 42.7377 39.4927 43.1731 39.2589C43.6084 39.0251 44.1042 38.9082 44.6605 38.9082ZM51.7281 45.608C50.9621 45.608 50.3655 45.4145 49.9382 45.0275C49.5109 44.6324 49.2973 44.0479 49.2973 43.2739V37.5658H51.1838V43.2498C51.1838 43.5239 51.2564 43.7375 51.4015 43.8907C51.5467 44.0358 51.7442 44.1084 51.9941 44.1084C52.2924 44.1084 52.5464 44.0278 52.756 43.8665L53.2639 45.1968C53.0704 45.3339 52.8366 45.4387 52.5625 45.5112C52.2964 45.5757 52.0183 45.608 51.7281 45.608ZM48.2935 40.6013V39.1501H52.8044V40.6013H48.2935ZM57.2181 45.608C56.5248 45.608 55.908 45.4629 55.3678 45.1726C54.8357 44.8824 54.4124 44.4873 54.098 43.9875C53.7916 43.4795 53.6384 42.9031 53.6384 42.2581C53.6384 41.605 53.7916 41.0286 54.098 40.5287C54.4124 40.0208 54.8357 39.6257 55.3678 39.3436C55.908 39.0533 56.5248 38.9082 57.2181 38.9082C57.9034 38.9082 58.5161 39.0533 59.0563 39.3436C59.5965 39.6257 60.0198 40.0168 60.3261 40.5166C60.6325 41.0165 60.7857 41.597 60.7857 42.2581C60.7857 42.9031 60.6325 43.4795 60.3261 43.9875C60.0198 44.4873 59.5965 44.8824 59.0563 45.1726C58.5161 45.4629 57.9034 45.608 57.2181 45.608ZM57.2181 44.06C57.5325 44.06 57.8147 43.9875 58.0647 43.8423C58.3146 43.6972 58.5121 43.4916 58.6572 43.2256C58.8024 42.9514 58.8749 42.629 58.8749 42.2581C58.8749 41.8792 58.8024 41.5567 58.6572 41.2906C58.5121 41.0246 58.3146 40.819 58.0647 40.6738C57.8147 40.5287 57.5325 40.4562 57.2181 40.4562C56.9037 40.4562 56.6215 40.5287 56.3716 40.6738C56.1216 40.819 55.9201 41.0246 55.7669 41.2906C55.6218 41.5567 55.5492 41.8792 55.5492 42.2581C55.5492 42.629 55.6218 42.9514 55.7669 43.2256C55.9201 43.4916 56.1216 43.6972 56.3716 43.8423C56.6215 43.9875 56.9037 44.06 57.2181 44.06Z" fill="#222222"/>
<defs>
<clipPath id="clip0_3483_2467">
<rect width="31.6849" height="30.5159" fill="white" transform="translate(15.1582 0.359375)"/>
</clipPath>
</defs>
</svg>
