<svg width="138" height="33" viewBox="0 0 138 33" fill="none" xmlns="http://www.w3.org/2000/svg">
<path fill-rule="evenodd" clip-rule="evenodd" d="M75.4446 10.067V7.37267C75.4446 6.40952 75.6461 5.50732 76.0373 4.6539C76.4285 3.81267 76.962 3.08116 77.6377 2.44719C78.3134 1.82541 79.0958 1.32555 79.9848 0.971985C80.8739 0.606232 81.8223 0.435547 82.818 0.435547C83.8138 0.435547 84.7622 0.618423 85.6513 0.971985C86.5403 1.33774 87.3227 1.82541 87.9984 2.44719C88.6741 3.06897 89.2076 3.81267 89.5988 4.6539C89.99 5.49513 90.1915 6.39732 90.1915 7.37267V24.6484H85.1889V7.37267C85.1889 7.0313 85.1297 6.70212 85.0111 6.39732C84.8926 6.08034 84.7266 5.79993 84.5132 5.55609C84.2999 5.31226 84.0509 5.11719 83.7664 4.95869C83.4819 4.81239 83.1618 4.72705 82.818 4.72705C82.4743 4.72705 82.1423 4.8002 81.846 4.95869C81.5496 5.105 81.3007 5.30006 81.0992 5.5439C80.8976 5.77554 80.7317 6.05595 80.6131 6.38513C80.4946 6.70212 80.4353 7.04349 80.4353 7.38486V10.0792H83.3041V14.3707H80.4353V24.6606H75.4327V14.3586H73.6309V10.067H75.4327H75.4446ZM48.7366 1.05695H53.751V24.648H48.7247V23.0265C47.6578 24.4042 46.2116 25.0991 44.386 25.0991C43.3547 25.0991 42.4063 24.9041 41.541 24.5017C40.6756 24.0994 39.9169 23.5508 39.2768 22.8558C38.6366 22.1609 38.1269 21.3319 37.7712 20.3809C37.4156 19.4299 37.2378 18.4058 37.2378 17.3086C37.2378 16.2723 37.4038 15.2726 37.7475 14.3338C38.0913 13.395 38.5773 12.5782 39.1938 11.871C39.8221 11.1761 40.5689 10.6153 41.4461 10.213C42.3233 9.81064 43.2836 9.60338 44.3386 9.60338C46.1049 9.60338 47.5749 10.2374 48.7366 11.5053V1.05695ZM42.43 17.3086C42.43 17.7841 42.513 18.223 42.679 18.6253C42.8449 19.0276 43.0702 19.3934 43.3547 19.686C43.6392 19.9908 43.983 20.2224 44.3742 20.3931C44.7654 20.5638 45.204 20.6491 45.6544 20.6491C46.1049 20.6491 46.5198 20.5638 46.911 20.3931C47.3022 20.2224 47.646 19.9908 47.9305 19.686C48.215 19.3812 48.4402 19.0276 48.618 18.6375C48.7959 18.2352 48.8788 17.8084 48.8788 17.3573C48.8788 16.9062 48.7959 16.4673 48.618 16.065C48.4402 15.6627 48.215 15.2969 47.9305 15.0043C47.646 14.6995 47.3022 14.4679 46.911 14.2972C46.5198 14.1265 46.0931 14.0412 45.6544 14.0412C45.2158 14.0412 44.7891 14.1265 44.3979 14.2972C44.0067 14.4679 43.6629 14.6995 43.3784 15.0043C43.0939 15.3091 42.8568 15.6505 42.6908 16.0406C42.513 16.4308 42.43 16.8453 42.43 17.3086ZM135.155 24.6475V14.3577H138V10.0662H135.155V5.68933H130.153V10.0662H128.493V14.3577H130.153V24.6475H135.155ZM102.378 20.9433C101.916 21.1262 101.43 21.2115 100.932 21.2115C100.232 21.2115 99.6041 21.0531 99.0469 20.7483C98.6913 20.5532 98.3712 20.285 98.1104 19.968L108.519 16.5665C108.127 14.2622 107.274 12.5066 105.958 11.2874C104.642 10.0683 102.971 9.45868 100.932 9.45868C99.4144 9.45868 98.0393 9.81224 96.7946 10.5194C95.5617 11.2265 94.566 12.1653 93.831 13.3479C93.096 14.5305 92.7285 15.8594 92.7285 17.3346C92.7285 18.8098 93.0486 20.2362 93.6769 21.4188C94.3052 22.6014 95.2179 23.528 96.4271 24.1985C97.6362 24.8691 99.1062 25.1983 100.837 25.1983C101.619 25.1983 102.449 25.0641 103.326 24.7959C104.204 24.5277 105.022 24.1741 105.78 23.7231L103.765 20.2362C103.315 20.5288 102.852 20.7605 102.378 20.9433ZM97.6244 14.9694C97.897 14.372 98.2882 13.9209 98.798 13.5917C99.3077 13.2625 99.9004 13.104 100.576 13.104C101.465 13.104 102.129 13.3235 102.58 13.7624C102.994 14.1769 103.291 14.6524 103.469 15.1888L97.2213 17.3589V17.0663C97.2213 16.2617 97.3517 15.5668 97.6244 14.9694ZM64.7042 21.2115C65.2021 21.2115 65.6882 21.1262 66.1505 20.9433C66.6247 20.7605 67.087 20.5288 67.5375 20.2362L69.5527 23.7231C68.794 24.1741 67.9761 24.5277 67.0988 24.7959C66.2216 25.0641 65.3918 25.1983 64.6094 25.1983C62.8787 25.1983 61.4087 24.8691 60.1996 24.1985C58.9904 23.528 58.0776 22.6014 57.4493 21.4188C56.821 20.2362 56.501 18.8098 56.501 17.3346C56.501 15.8594 56.8685 14.5305 57.6034 13.3479C58.3384 12.1653 59.3342 11.2265 60.567 10.5194C61.8118 9.81224 63.1869 9.45868 64.7042 9.45868C66.7432 9.45868 68.4147 10.0683 69.7305 11.2874C71.0464 12.5066 71.8999 14.2622 72.2911 16.5665L61.8829 19.968C62.1437 20.285 62.4638 20.5532 62.8194 20.7483C63.3765 21.0531 64.0048 21.2115 64.7042 21.2115ZM62.5704 13.5917C62.0607 13.9209 61.6695 14.372 61.3969 14.9694C61.1242 15.5668 60.9938 16.2617 60.9938 17.0663V17.3589L67.2411 15.1888C67.0633 14.6524 66.7669 14.1769 66.352 13.7624C65.9015 13.3235 65.2377 13.104 64.3486 13.104C63.6729 13.104 63.0802 13.2625 62.5704 13.5917ZM120.384 20.9433C119.922 21.1262 119.436 21.2115 118.938 21.2115C118.239 21.2115 117.61 21.0531 117.053 20.7483C116.698 20.5532 116.378 20.285 116.117 19.968L126.525 16.5665C126.134 14.2622 125.28 12.5066 123.964 11.2874C122.649 10.0683 120.977 9.45868 118.938 9.45868C117.421 9.45868 116.046 9.81224 114.801 10.5194C113.568 11.2265 112.572 12.1653 111.837 13.3479C111.102 14.5305 110.735 15.8594 110.735 17.3346C110.735 18.8098 111.055 20.2362 111.683 21.4188C112.312 22.6014 113.224 23.528 114.433 24.1985C115.643 24.8691 117.113 25.1983 118.843 25.1983C119.626 25.1983 120.455 25.0641 121.333 24.7959C122.21 24.5277 123.028 24.1742 123.787 23.7231L121.771 20.2362C121.321 20.5288 120.859 20.7605 120.384 20.9433ZM115.631 14.9694C115.903 14.372 116.295 13.9209 116.804 13.5917C117.314 13.2625 117.907 13.104 118.582 13.104C119.472 13.104 120.135 13.3235 120.586 13.7624C121.001 14.1769 121.297 14.6524 121.475 15.1888L115.228 17.3589V17.0663C115.228 16.2617 115.358 15.5668 115.631 14.9694ZM19.3614 13.2605C18.6739 14.4553 18.3301 15.7842 18.3301 17.2838C18.3301 18.9418 18.6739 20.3561 19.3733 21.5387C20.0727 22.7213 21.0329 23.6235 22.2539 24.2453C23.4868 24.8671 24.8737 25.184 26.4385 25.184C28.11 25.184 29.5444 24.8427 30.7417 24.1477C31.939 23.4528 32.8518 22.514 33.4919 21.3192C34.132 20.1244 34.4521 18.7834 34.4521 17.2838C34.4521 15.7842 34.132 14.4431 33.4919 13.2605C32.8518 12.0779 31.939 11.1513 30.7417 10.4686C29.5444 9.78583 28.1218 9.44446 26.5096 9.44446C24.8974 9.44446 23.4749 9.78583 22.242 10.4686C21.0092 11.1513 20.049 12.0779 19.3614 13.2605ZM23.3682 19.3808C23.0719 18.7712 22.9177 18.0762 22.9177 17.3203C22.9177 16.5401 23.06 15.8451 23.3682 15.2477C23.6646 14.6503 24.0795 14.1627 24.6011 13.8091C25.1227 13.4556 25.7035 13.2727 26.3555 13.2727C27.0787 13.2727 27.6951 13.4556 28.2167 13.8091C28.7383 14.1627 29.1413 14.6503 29.4258 15.2477C29.7103 15.8451 29.8526 16.5645 29.8526 17.3203C29.8526 18.0762 29.7103 18.7712 29.4258 19.3808C29.1413 19.9903 28.7383 20.478 28.2167 20.8316C27.6951 21.1851 27.0668 21.368 26.3555 21.368C25.7035 21.368 25.1227 21.1851 24.6011 20.8316C24.0795 20.478 23.6764 19.9903 23.3682 19.3808ZM5.08851 9.76147H0.0859375V24.6476H5.08851V16.8571V14.626V13.8457V9.76147ZM13.9793 11.6632C14.3824 12.1508 14.6669 12.6995 14.8091 13.3091L14.7973 13.3212C14.9514 13.9308 15.0225 14.6136 15.0225 15.3938V24.6596H10.0199V17.2958C10.0199 16.5764 9.97252 16.0034 9.86583 15.5523C9.77099 15.1134 9.59318 14.7599 9.33238 14.4917C9.10715 14.26 8.8582 14.1015 8.58555 14.004C8.30104 13.9064 8.00468 13.8577 7.69647 13.8577H7.54236V9.76125H9.60503C10.6008 9.76125 11.4543 9.93193 12.1656 10.2611C12.8769 10.5903 13.4814 11.0536 13.9793 11.6632ZM97.1735 31.9019H133.673C134.688 31.9019 135.511 31.0558 135.511 30.0121C135.511 28.9685 134.688 28.1224 133.673 28.1224H97.1735C96.1587 28.1224 95.3361 28.9685 95.3361 30.0121C95.3361 31.0558 96.1587 31.9019 97.1735 31.9019ZM92.0049 31.9019H87.5831C86.5684 31.9019 85.7457 31.0558 85.7457 30.0121C85.7457 28.9685 86.5684 28.1224 87.5831 28.1224H92.0049C93.0196 28.1224 93.8423 28.9685 93.8423 30.0121C93.8423 31.0558 93.0196 31.9019 92.0049 31.9019ZM76.1794 30.2208L79.7713 32.3544C80.1625 32.586 80.6604 32.2934 80.6604 31.8301V28.2214C80.6604 27.7581 80.1625 27.4655 79.7713 27.6971L76.1794 29.8307C76.0372 29.916 76.0372 30.1355 76.1794 30.2208ZM84.2397 29.9095L83.5859 29.237V29.2543C83.1667 28.8232 82.4962 28.8232 82.077 29.2543C81.6579 29.6853 81.6579 30.375 82.077 30.806C82.4962 31.2371 83.1667 31.2371 83.5859 30.806L84.2397 30.1336C84.2984 30.0733 84.2984 29.9698 84.2397 29.9095Z" fill="#222222"/>
</svg>
