<svg width="105" height="44" viewBox="0 0 105 44" fill="none" xmlns="http://www.w3.org/2000/svg">
<path d="M0.765625 42.0964V39.0282C1.11686 39.3381 1.53525 39.6171 2.02079 39.865C2.51666 40.1129 3.03319 40.3247 3.57038 40.5003C4.1179 40.6656 4.66542 40.7947 5.21294 40.8877C5.76046 40.9807 6.26666 41.0272 6.73153 41.0272C8.33277 41.0272 9.52596 40.7328 10.3111 40.1439C11.1065 39.5447 11.5043 38.6873 11.5043 37.5716C11.5043 36.9724 11.37 36.4507 11.1014 36.0065C10.8431 35.5623 10.4815 35.1594 10.0167 34.7978C9.55178 34.4259 8.9991 34.0747 8.3586 33.7441C7.72844 33.4032 7.04662 33.0468 6.31315 32.6749C5.53835 32.2823 4.81521 31.8846 4.14372 31.4817C3.47224 31.0788 2.88856 30.6346 2.39269 30.1491C1.89682 29.6635 1.50426 29.116 1.21501 28.5065C0.93608 27.8867 0.796617 27.1635 0.796617 26.3371C0.796617 25.3247 1.01872 24.4466 1.46294 23.7028C1.90715 22.9487 2.49083 22.3288 3.21397 21.8433C3.93711 21.3578 4.75839 20.9962 5.67781 20.7586C6.60757 20.521 7.55281 20.4022 8.51356 20.4022C10.7036 20.4022 12.2997 20.6656 13.3018 21.1925V24.1212C11.9898 23.2121 10.3059 22.7576 8.25013 22.7576C7.68195 22.7576 7.11377 22.8195 6.54558 22.9435C5.9774 23.0571 5.4712 23.2483 5.02699 23.5168C4.58277 23.7854 4.2212 24.1315 3.94228 24.5551C3.66335 24.9786 3.52389 25.4952 3.52389 26.1047C3.52389 26.6728 3.6272 27.1635 3.83381 27.5768C4.05075 27.99 4.36583 28.3671 4.77905 28.708C5.19228 29.0489 5.69331 29.3795 6.28215 29.6997C6.88133 30.0199 7.56831 30.3712 8.3431 30.7534C9.13856 31.146 9.89269 31.5592 10.6055 31.9931C11.3183 32.427 11.9433 32.9073 12.4805 33.4342C13.0177 33.9611 13.4412 34.5447 13.7512 35.1852C14.0714 35.8257 14.2315 36.5592 14.2315 37.3856C14.2315 38.4807 14.0146 39.4104 13.5807 40.1749C13.1572 40.929 12.5786 41.5437 11.8452 42.0189C11.122 42.4941 10.2853 42.835 9.33484 43.0416C8.38443 43.2586 7.38236 43.3671 6.32864 43.3671C5.9774 43.3671 5.54352 43.3361 5.02699 43.2741C4.51046 43.2224 3.9836 43.1398 3.44641 43.0261C2.90922 42.9228 2.39786 42.7937 1.91232 42.6387C1.43711 42.4735 1.05488 42.2927 0.765625 42.0964Z" fill="#222222"/>
<path d="M29.1386 42.2668C27.9196 43.0003 26.4733 43.3671 24.7997 43.3671C22.5373 43.3671 20.7088 42.6336 19.3142 41.1666C17.9299 39.6894 17.2377 37.7782 17.2377 35.4332C17.2377 32.8195 17.9867 30.7224 19.4846 29.1418C20.9826 27.5509 22.9815 26.7555 25.4815 26.7555C26.8762 26.7555 28.1055 27.0137 29.1696 27.5303V30.1336C27.9919 29.3071 26.7315 28.8939 25.3886 28.8939C23.7667 28.8939 22.434 29.4776 21.3906 30.6449C20.3576 31.802 19.841 33.3257 19.841 35.2162C19.841 37.0757 20.3266 38.5427 21.2976 39.6171C22.2791 40.6914 23.591 41.2286 25.2336 41.2286C26.6179 41.2286 27.9196 40.7689 29.1386 39.8495V42.2668Z" fill="#222222"/>
<path d="M41.2563 29.6997C40.8121 29.3588 40.1716 29.1883 39.3348 29.1883C38.2501 29.1883 37.341 29.6997 36.6076 30.7224C35.8844 31.7452 35.5229 33.1398 35.5229 34.9063V42.9952H32.9815V27.1274H35.5229V30.397H35.5848C35.9464 29.2813 36.4991 28.4135 37.2429 27.7937C37.9867 27.1635 38.8183 26.8485 39.7377 26.8485C40.3989 26.8485 40.9051 26.9208 41.2563 27.0654V29.6997Z" fill="#222222"/>
<path d="M45.3162 23.0985C44.8617 23.0985 44.4743 22.9435 44.1541 22.6336C43.8338 22.3237 43.6737 21.9311 43.6737 21.4559C43.6737 20.9807 43.8338 20.5881 44.1541 20.2782C44.4743 19.958 44.8617 19.7978 45.3162 19.7978C45.7811 19.7978 46.1737 19.958 46.4939 20.2782C46.8245 20.5881 46.9898 20.9807 46.9898 21.4559C46.9898 21.9104 46.8245 22.2978 46.4939 22.6181C46.1737 22.9383 45.7811 23.0985 45.3162 23.0985ZM46.5559 42.9952H44.0146V27.1274H46.5559V42.9952Z" fill="#222222"/>
<path d="M54.3038 40.7018H54.2419V42.9952H51.7005V19.5034H54.2419V29.9166H54.3038C55.5538 27.8092 57.3824 26.7555 59.7894 26.7555C61.8245 26.7555 63.4154 27.4683 64.5621 28.8939C65.7191 30.3092 66.2976 32.21 66.2976 34.5964C66.2976 37.2514 65.652 39.3794 64.3607 40.9807C63.0693 42.5716 61.3028 43.3671 59.0611 43.3671C56.964 43.3671 55.3782 42.4786 54.3038 40.7018ZM54.2419 34.302V36.5179C54.2419 37.8299 54.6654 38.9456 55.5125 39.865C56.37 40.7741 57.4547 41.2286 58.7667 41.2286C60.3059 41.2286 61.5094 40.6398 62.3772 39.4621C63.2553 38.2844 63.6943 36.647 63.6943 34.5499C63.6943 32.7834 63.2863 31.3991 62.4702 30.397C61.6541 29.3949 60.5487 28.8939 59.1541 28.8939C57.6768 28.8939 56.4888 29.4104 55.59 30.4435C54.6912 31.4662 54.2419 32.7524 54.2419 34.302Z" fill="#222222"/>
<path d="M72.9609 40.7018H72.8989V42.9952H70.3576V19.5034H72.8989V29.9166H72.9609C74.2109 27.8092 76.0394 26.7555 78.4464 26.7555C80.4815 26.7555 82.0724 27.4683 83.2191 28.8939C84.3762 30.3092 84.9547 32.21 84.9547 34.5964C84.9547 37.2514 84.309 39.3794 83.0177 40.9807C81.7264 42.5716 79.9598 43.3671 77.7181 43.3671C75.621 43.3671 74.0353 42.4786 72.9609 40.7018ZM72.8989 34.302V36.5179C72.8989 37.8299 73.3224 38.9456 74.1696 39.865C75.027 40.7741 76.1117 41.2286 77.4237 41.2286C78.9629 41.2286 80.1665 40.6398 81.0342 39.4621C81.9123 38.2844 82.3514 36.647 82.3514 34.5499C82.3514 32.7834 81.9433 31.3991 81.1272 30.397C80.3111 29.3949 79.2057 28.8939 77.8111 28.8939C76.3338 28.8939 75.1458 29.4104 74.247 30.4435C73.3483 31.4662 72.8989 32.7524 72.8989 34.302Z" fill="#222222"/>
<path d="M91.5559 42.9952H89.0146V19.5034H91.5559V42.9952Z" fill="#222222"/>
<path fill-rule="evenodd" clip-rule="evenodd" d="M104.699 1.23824L104.699 1.23727C104.702 0.995137 104.704 0.750612 104.708 0.503418L90.9531 11.1284C91.1255 11.1991 91.3147 11.1991 91.487 11.1284C93.8637 10.5753 96.2398 10.0297 98.6152 9.49167C99.9964 9.17971 101.376 8.86096 102.589 8.00418C103.46 7.38929 104.211 6.61615 104.425 5.44289C104.668 4.08848 104.683 2.70742 104.699 1.23824ZM92.6817 15.1435C93.0423 15.0628 93.4112 14.9803 93.7937 14.8978C93.4806 14.586 93.1746 14.2819 92.8738 13.983C92.0884 13.2025 91.3388 12.4577 90.5945 11.7058C90.5308 11.6347 90.4476 11.5894 90.3583 11.5771C90.2689 11.5648 90.1784 11.5862 90.1011 11.638C89.5081 11.9392 88.9005 12.2034 88.2811 12.4292C87.5289 12.6756 87.1568 13.1277 87.1406 14.032C87.1406 14.4072 87.2114 14.5203 87.5066 14.5903C88.1908 14.7812 88.8711 14.986 89.5509 15.1908C89.8536 15.2819 90.1562 15.3731 90.4591 15.4629C90.5831 15.5178 90.716 15.5432 90.8493 15.5375C91.4528 15.4184 92.0546 15.2838 92.6817 15.1435ZM99.4971 10.9785C99.3196 11.1928 99.1514 11.4176 98.9832 11.6423C98.5022 12.2852 98.0215 12.9274 97.3233 13.3228C96.7631 13.6816 96.099 13.779 95.475 13.594C94.4933 13.2635 93.5829 12.7456 92.6602 12.2207L92.6601 12.2207L92.6601 12.2207L92.6601 12.2207L92.6601 12.2207C92.3207 12.0276 91.9797 11.8336 91.6328 11.6476L99.4385 10.8315L99.4971 10.9785ZM92.7528 15.6346C92.4492 15.6971 92.1421 15.7602 91.8281 15.8057C91.8736 15.8454 91.9224 15.8802 91.9737 15.9097C92.6438 16.1089 93.3134 16.3078 93.983 16.5067C96.5424 17.2669 99.0995 18.0265 101.664 18.7988C102.005 18.8996 102.075 18.7044 102.16 18.4708L102.16 18.4705L102.16 18.4705C102.169 18.4476 102.177 18.4243 102.186 18.4009C102.3 18.0987 102.13 18.0489 101.971 18.0025C101.942 17.994 101.913 17.9856 101.887 17.9759C101.321 17.7705 100.752 17.5712 100.184 17.3717C98.6928 16.8489 97.1998 16.3253 95.7492 15.6904C94.705 15.2332 93.7474 15.4301 92.7528 15.6346ZM102.858 18.3386L104.604 18.8427C104.689 18.8653 104.778 18.897 104.769 19.0077C104.764 19.0615 104.747 19.113 104.72 19.1582C104.694 19.2033 104.658 19.2408 104.616 19.2677C104.312 19.4675 103.962 19.5633 103.61 19.5432C103.257 19.5231 102.918 19.388 102.634 19.1547C102.433 18.9794 102.498 18.8175 102.574 18.6268L102.575 18.6234C102.588 18.5906 102.6 18.558 102.611 18.527C102.664 18.3761 102.704 18.2617 102.858 18.3386ZM86.0843 14.4144C86.1312 14.4329 86.1802 14.4436 86.2299 14.4461C86.5514 14.4438 86.7738 14.385 86.8042 14.003C86.8322 13.6867 86.8775 13.3727 86.9397 13.0626C86.9525 13.0229 86.9578 12.9806 86.9554 12.9385C86.9529 12.8964 86.9428 12.8553 86.9255 12.8177C86.9083 12.7802 86.8843 12.7471 86.855 12.7203C86.8258 12.6936 86.792 12.6739 86.7556 12.6624C86.3512 12.4341 86.0317 12.5675 85.8295 13.058C85.6192 13.5961 85.7445 14.2675 86.0843 14.4144Z" fill="#222222"/>
</svg>
