<svg width="56" height="57" viewBox="0 0 56 57" fill="none" xmlns="http://www.w3.org/2000/svg">
<circle cx="28" cy="28.5" r="27.5" stroke="#2B2B2B"/>
<path d="M27.299 40.5212L18.1066 31.3288C17.919 31.1413 17.8137 30.8869 17.8137 30.6217C17.8137 30.3565 17.919 30.1021 18.1066 29.9146C18.2941 29.7271 18.5485 29.6217 18.8137 29.6217C19.0789 29.6217 19.3332 29.7271 19.5208 29.9146L27.0064 37.4002L27.0055 17.1867C27.0055 16.9213 27.1109 16.6668 27.2986 16.4792C27.4862 16.2915 27.7407 16.1861 28.0061 16.1861C28.2714 16.1861 28.5259 16.2915 28.7136 16.4792C28.9012 16.6668 29.0066 16.9213 29.0066 17.1867L29.0057 37.4002L36.4913 29.9146C36.6789 29.7271 36.9332 29.6217 37.1984 29.6217C37.4637 29.6217 37.718 29.7271 37.9056 29.9146C38.0931 30.1021 38.1984 30.3565 38.1984 30.6217C38.1984 30.8869 38.0931 31.1413 37.9056 31.3288L28.7132 40.5212C28.5256 40.7087 28.2713 40.8141 28.0061 40.8141C27.7408 40.8141 27.4865 40.7087 27.299 40.5212Z" fill="#222222"/>
</svg>
