<svg width="25" height="25" viewBox="0 0 25 25" fill="none" xmlns="http://www.w3.org/2000/svg">
<path d="M13.605 5.27833L19.6261 11.2994C19.749 11.4223 19.818 11.5889 19.818 11.7626C19.818 11.9363 19.749 12.1029 19.6261 12.2258C19.5033 12.3486 19.3367 12.4176 19.163 12.4176C18.9893 12.4176 18.8227 12.3486 18.6998 12.2258L13.7967 7.32261L13.7972 20.5627C13.7972 20.7365 13.7282 20.9032 13.6053 21.0261C13.4824 21.149 13.3157 21.2181 13.1419 21.2181C12.9681 21.2181 12.8014 21.149 12.6784 21.0261C12.5555 20.9032 12.4865 20.7365 12.4865 20.5627L12.4871 7.32261L7.58392 12.2258C7.46108 12.3486 7.29448 12.4176 7.12076 12.4176C6.94704 12.4176 6.78043 12.3486 6.65759 12.2258C6.53476 12.1029 6.46575 11.9363 6.46575 11.7626C6.46575 11.5889 6.53476 11.4223 6.65759 11.2994L12.6787 5.27833C12.8015 5.15549 12.9681 5.08648 13.1419 5.08648C13.3156 5.08648 13.4822 5.15549 13.605 5.27833Z" fill="#222222"/>
</svg>
