<svg width="32" height="32" viewBox="0 0 32 32" fill="none" xmlns="http://www.w3.org/2000/svg">
<path d="M18.5486 4.66071C18.2954 4.20805 17.9261 3.83108 17.4788 3.56869C17.0314 3.3063 16.5221 3.16797 16.0035 3.16797C15.4849 3.16797 14.9756 3.3063 14.5282 3.56869C14.0809 3.83108 13.7116 4.20805 13.4584 4.66071L2.37078 24.4939C2.12276 24.9376 1.995 25.4383 2.00015 25.9465C2.0053 26.4547 2.1432 26.9528 2.40016 27.3912C2.65713 27.8297 3.02424 28.1934 3.4651 28.4463C3.90597 28.6992 4.40527 28.8325 4.9135 28.8329H27.0842C27.5926 28.8329 28.0922 28.6999 28.5334 28.4472C28.9746 28.1945 29.342 27.8308 29.5992 27.3922C29.8565 26.9537 29.9946 26.4555 29.9998 25.9471C30.0051 25.4387 29.8773 24.9377 29.6292 24.4939L18.5486 4.66071ZM17.7507 22.4178C17.7507 22.8818 17.5664 23.3268 17.2383 23.6549C16.9102 23.983 16.4652 24.1674 16.0012 24.1674C15.5372 24.1674 15.0921 23.983 14.764 23.6549C14.4359 23.3268 14.2516 22.8818 14.2516 22.4178C14.2516 21.9538 14.4359 21.5087 14.764 21.1806C15.0921 20.8525 15.5372 20.6682 16.0012 20.6682C16.4652 20.6682 16.9102 20.8525 17.2383 21.1806C17.5664 21.5087 17.7507 21.9538 17.7507 22.4178ZM14.8348 17.169V11.3371C14.8348 11.0278 14.9577 10.7311 15.1764 10.5123C15.3951 10.2936 15.6918 10.1707 16.0012 10.1707C16.3105 10.1707 16.6072 10.2936 16.8259 10.5123C17.0447 10.7311 17.1676 11.0278 17.1676 11.3371V17.169C17.1676 17.4784 17.0447 17.7751 16.8259 17.9938C16.6072 18.2125 16.3105 18.3354 16.0012 18.3354C15.6918 18.3354 15.3951 18.2125 15.1764 17.9938C14.9577 17.7751 14.8348 17.4784 14.8348 17.169Z" fill="#EF7708"/>
</svg>
