<svg width="33" height="33" viewBox="0 0 33 33" fill="none" xmlns="http://www.w3.org/2000/svg">
<path d="M19.266 16.1795L15.066 13.7795V18.5795L19.266 16.1795Z" fill="#222222"/>
<path fill-rule="evenodd" clip-rule="evenodd" d="M0.666016 16.1795C0.666016 7.34297 7.82946 0.179527 16.666 0.179527C25.5026 0.179527 32.666 7.34297 32.666 16.1795C32.666 25.0161 25.5026 32.1795 16.666 32.1795C7.82946 32.1795 0.666016 25.0161 0.666016 16.1795ZM22.866 10.8795C23.566 11.0795 24.066 11.5795 24.266 12.2795C24.666 13.5795 24.666 16.1795 24.666 16.1795C24.666 16.1795 24.666 18.7795 24.366 20.0795C24.166 20.7795 23.666 21.2795 22.966 21.4795C21.666 21.7795 16.666 21.7795 16.666 21.7795C16.666 21.7795 11.566 21.7795 10.366 21.4795C9.66601 21.2795 9.16602 20.7795 8.96602 20.0795C8.66602 18.7795 8.66602 16.1795 8.66602 16.1795C8.66602 16.1795 8.66601 13.5795 8.86601 12.2795C9.06601 11.5795 9.56602 11.0795 10.266 10.8795C11.566 10.5795 16.566 10.5795 16.566 10.5795C16.566 10.5795 21.666 10.5795 22.866 10.8795Z" fill="#222222"/>
</svg>
